<svg width="21" height="20" viewBox="0 0 21 20" fill="none" xmlns="http://www.w3.org/2000/svg">
<path d="M6.75018 5.40527H7.83622C7.91768 5.40527 7.97198 5.4595 7.97198 5.54084V14.9488C7.97198 15.0302 7.91768 15.0844 7.83622 15.0844H6.77733C6.69588 15.0844 6.64158 15.0302 6.64158 14.9488V6.81512C6.64158 6.788 6.64158 6.788 6.61443 6.76089C6.58728 6.76089 6.58728 6.76089 6.56013 6.76089L5.09397 7.24891C5.06682 7.24891 5.03967 7.27603 5.01252 7.27603C4.95821 7.27603 4.93106 7.24891 4.90391 7.16758L4.84961 6.38132C4.84961 6.29998 4.87676 6.24576 4.93106 6.21864L6.50582 5.43239C6.61443 5.40527 6.66873 5.40527 6.75018 5.40527Z" fill="white"/>
<path d="M15.71 12.075C15.71 12.6443 15.6286 13.1323 15.4385 13.5661C15.2213 14.0813 14.8955 14.488 14.4611 14.7862C14.0267 15.0573 13.4836 15.22 12.832 15.22C12.1532 15.22 11.5831 15.0573 11.0944 14.7591C10.6056 14.4337 10.2798 13.9999 10.0898 13.4306C9.95401 13.051 9.87256 12.5901 9.87256 12.1021V7.79121C9.87256 7.03207 10.1441 6.43559 10.6599 5.97468C11.1758 5.51377 11.8817 5.29688 12.7234 5.29688C13.2664 5.29688 13.7552 5.40532 14.1624 5.59511C14.5697 5.7849 14.8955 6.08313 15.1399 6.43559C15.3571 6.78805 15.4928 7.22185 15.4928 7.68276V7.95389C15.4928 8.03522 15.4385 8.08945 15.3571 8.08945H14.2982C14.2167 8.08945 14.1624 8.03522 14.1624 7.95389V7.81832C14.1624 7.41164 14.0267 7.05918 13.7552 6.81517C13.4836 6.54404 13.1307 6.43559 12.7234 6.43559C12.2618 6.43559 11.9089 6.57116 11.6102 6.84228C11.3387 7.1134 11.1758 7.46586 11.1758 7.89966V9.63485C11.1758 9.66196 11.1758 9.66196 11.203 9.66196C11.2301 9.66196 11.2301 9.66196 11.2573 9.63485C11.6645 9.20105 12.2347 8.98415 12.9949 8.98415C14.081 8.98415 14.8683 9.41795 15.3299 10.2855C15.5743 10.8007 15.71 11.3972 15.71 12.075ZM14.3796 12.075C14.3796 11.6141 14.2982 11.2345 14.1353 10.9362C13.8638 10.394 13.4022 10.1229 12.7777 10.1229C12.4519 10.1229 12.1804 10.2042 11.936 10.3398C11.6917 10.4753 11.5288 10.6922 11.4202 10.9634C11.2844 11.2616 11.203 11.6683 11.203 12.1292C11.203 12.5088 11.2573 12.8341 11.393 13.1052C11.5016 13.4035 11.6917 13.6204 11.936 13.783C12.1804 13.9457 12.4791 13.9999 12.8049 13.9999C13.4836 13.9999 13.9452 13.7017 14.1896 13.1052C14.3253 12.8341 14.3796 12.4816 14.3796 12.075Z" fill="white"/>
<mask id="path-3-inside-1" fill="white">
<path d="M19.9999 2.39624V3.10117C19.9999 3.1825 19.9727 3.20962 19.8913 3.20962H18.0993C18.0721 3.20962 18.045 3.23673 18.045 3.26384V5.02614C18.045 5.10748 18.0178 5.13459 17.9364 5.13459H17.2305C17.149 5.13459 17.1219 5.10748 17.1219 5.02614V3.29095C17.1219 3.26384 17.0947 3.23673 17.0676 3.23673H15.2756C15.1941 3.23673 15.167 3.20961 15.167 3.12828V2.39624C15.167 2.31491 15.1941 2.2878 15.2756 2.2878H17.0676C17.0947 2.2878 17.1219 2.26068 17.1219 2.23357V0.417043C17.1219 0.335706 17.149 0.308594 17.2305 0.308594H17.9364C18.0178 0.308594 18.045 0.335706 18.045 0.417043V2.23357C18.045 2.26068 18.0721 2.2878 18.0993 2.2878H19.8913C19.9456 2.2878 19.9999 2.31491 19.9999 2.39624Z"/>
</mask>
<path d="M19.9999 2.39624V3.10117C19.9999 3.1825 19.9727 3.20962 19.8913 3.20962H18.0993C18.0721 3.20962 18.045 3.23673 18.045 3.26384V5.02614C18.045 5.10748 18.0178 5.13459 17.9364 5.13459H17.2305C17.149 5.13459 17.1219 5.10748 17.1219 5.02614V3.29095C17.1219 3.26384 17.0947 3.23673 17.0676 3.23673H15.2756C15.1941 3.23673 15.167 3.20961 15.167 3.12828V2.39624C15.167 2.31491 15.1941 2.2878 15.2756 2.2878H17.0676C17.0947 2.2878 17.1219 2.26068 17.1219 2.23357V0.417043C17.1219 0.335706 17.149 0.308594 17.2305 0.308594H17.9364C18.0178 0.308594 18.045 0.335706 18.045 0.417043V2.23357C18.045 2.26068 18.0721 2.2878 18.0993 2.2878H19.8913C19.9456 2.2878 19.9999 2.31491 19.9999 2.39624Z" fill="white"/>
<path d="M19.8913 2.2878V5.2878V2.2878ZM16.9999 2.39624V3.10117H22.9999V2.39624H16.9999ZM16.9999 3.10117C16.9999 2.97487 16.9823 1.93577 17.8563 1.06305C18.729 0.191576 19.7666 0.209615 19.8913 0.209615V6.20962C20.0974 6.20962 21.1892 6.2141 22.0959 5.30873C23.0038 4.40212 22.9999 3.3088 22.9999 3.10117H16.9999ZM19.8913 0.209615H18.0993V6.20962H19.8913V0.209615ZM18.0993 0.209615C17.1115 0.209615 16.3738 0.6727 15.9421 1.10375C15.5107 1.53454 15.045 2.27311 15.045 3.26384H21.045C21.045 4.22746 20.5928 4.93892 20.1818 5.34937C19.7705 5.76009 19.0599 6.20962 18.0993 6.20962V0.209615ZM15.045 3.26384V5.02614H21.045V3.26384H15.045ZM15.045 5.02614C15.045 4.89984 15.0275 3.86075 15.9014 2.98803C16.7742 2.11655 17.8117 2.13459 17.9364 2.13459V8.13459C18.1426 8.13459 19.2344 8.13907 20.141 7.23371C21.049 6.3271 21.045 5.23378 21.045 5.02614H15.045ZM17.9364 2.13459H17.2305V8.13459H17.9364V2.13459ZM17.2305 2.13459C17.3552 2.13459 18.3927 2.11655 19.2654 2.98803C20.1394 3.86075 20.1219 4.89984 20.1219 5.02614H14.1219C14.1219 5.23378 14.1179 6.3271 15.0258 7.23371C15.9325 8.13907 17.0243 8.13459 17.2305 8.13459V2.13459ZM20.1219 5.02614V3.29095H14.1219V5.02614H20.1219ZM20.1219 3.29095C20.1219 2.30018 19.6561 1.5616 19.2247 1.13083C18.793 0.699802 18.0553 0.236728 17.0676 0.236728V6.23673C16.107 6.23673 15.3964 5.78721 14.9851 5.37651C14.5741 4.96608 14.1219 4.25461 14.1219 3.29095H20.1219ZM17.0676 0.236728H15.2756V6.23673H17.0676V0.236728ZM15.2756 0.236728C15.4003 0.236728 16.4378 0.218691 17.3106 1.09017C18.1845 1.96289 18.167 3.00198 18.167 3.12828H12.167C12.167 3.33592 12.163 4.42923 13.0709 5.33584C13.9776 6.24121 15.0694 6.23673 15.2756 6.23673V0.236728ZM18.167 3.12828V2.39624H12.167V3.12828H18.167ZM18.167 2.39624C18.167 2.52254 18.1845 3.56164 17.3105 4.43436C16.4378 5.30583 15.4003 5.2878 15.2756 5.2878V-0.712205C15.0694 -0.712205 13.9776 -0.716687 13.0709 0.188679C12.163 1.09529 12.167 2.18861 12.167 2.39624H18.167ZM15.2756 5.2878H17.0676V-0.712205H15.2756V5.2878ZM17.0676 5.2878C18.0553 5.2878 18.7931 4.82472 19.2247 4.39368C19.6561 3.96292 20.1219 3.22434 20.1219 2.23357H14.1219C14.1219 1.26991 14.5741 0.558449 14.9851 0.148016C15.3964 -0.262683 16.107 -0.712205 17.0676 -0.712205V5.2878ZM20.1219 2.23357V0.417043H14.1219V2.23357H20.1219ZM20.1219 0.417043C20.1219 0.543343 20.1394 1.58243 19.2654 2.45515C18.3927 3.32663 17.3552 3.30859 17.2305 3.30859V-2.69141C17.0243 -2.69141 15.9325 -2.69589 15.0258 -1.79052C14.1179 -0.883909 14.1219 0.209406 14.1219 0.417043H20.1219ZM17.2305 3.30859H17.9364V-2.69141H17.2305V3.30859ZM17.9364 3.30859C17.8117 3.30859 16.7742 3.32663 15.9014 2.45515C15.0275 1.58243 15.045 0.543343 15.045 0.417043H21.045C21.045 0.209406 21.049 -0.883909 20.141 -1.79052C19.2344 -2.69589 18.1426 -2.69141 17.9364 -2.69141V3.30859ZM15.045 0.417043V2.23357H21.045V0.417043H15.045ZM15.045 2.23357C15.045 3.2243 15.5107 3.96287 15.9421 4.39366C16.3738 4.82471 17.1115 5.2878 18.0993 5.2878V-0.712205C19.0599 -0.712205 19.7705 -0.262672 20.1818 0.148043C20.5928 0.558494 21.045 1.26995 21.045 2.23357H15.045ZM18.0993 5.2878H19.8913V-0.712205H18.0993V5.2878ZM19.8913 5.2878C19.4736 5.2878 18.7342 5.18942 18.047 4.61753C17.2629 3.96505 16.9999 3.07851 16.9999 2.39624H22.9999C22.9999 1.63264 22.7097 0.691881 21.8849 0.00550339C21.1569 -0.600269 20.3632 -0.712205 19.8913 -0.712205V5.2878Z" fill="white" mask="url(#path-3-inside-1)"/>
<path d="M18.4796 8.87625C19.2669 15.3561 15.1128 17.5522 10.7415 17.9047C10.4429 17.9318 10.117 17.9318 9.81838 17.9318C6.56026 17.9318 3.5465 16.4135 2.51476 10.5301C1.70022 5.92101 4.60539 3.45378 7.99927 2.26084C8.8138 1.9626 9.70978 1.82704 10.5786 1.82704C11.1759 1.82704 11.7733 1.88127 12.3434 2.01683V0.661209C11.7461 0.55276 11.1488 0.498535 10.5786 0.498535C9.51972 0.498535 8.51513 0.661209 7.5377 1.01367C5.39277 1.7457 3.7094 2.85731 2.59621 4.29426C1.18436 6.08368 0.722788 8.25267 1.1572 10.7741C2.18894 16.4406 5.0941 19.2874 9.81838 19.2874C10.1442 19.2874 10.4972 19.2603 10.8501 19.2332C14.0811 18.962 16.6061 17.8504 18.1538 15.9526C19.6199 14.136 20.1901 11.6959 19.8371 8.71358C19.7828 8.38823 19.7285 8.06288 19.6471 7.76465H18.2352C18.3438 8.08999 18.4253 8.46957 18.4796 8.87625Z" fill="white"/>
<path d="M10.5786 0.498535C11.1488 0.498535 11.7461 0.55276 12.3434 0.661209V2.01683C11.7733 1.88127 11.1759 1.82704 10.5786 1.82704C9.70978 1.82704 8.8138 1.9626 7.99927 2.26084C4.60539 3.45378 1.70023 5.92101 2.51476 10.5301C3.5465 16.4135 6.56026 17.9318 9.81838 17.9318C10.117 17.9318 10.4429 17.9318 10.7415 17.9047C15.1128 17.5522 19.2669 15.3561 18.4796 8.87625C18.4253 8.46957 18.3438 8.08999 18.2352 7.76465H19.6471C19.7285 8.06288 19.7828 8.38823 19.8371 8.71358C20.1901 11.6959 19.6199 14.136 18.1538 15.9526C16.6061 17.8504 14.0811 18.962 10.8501 19.2332C10.4972 19.2603 10.1442 19.2874 9.81838 19.2874C5.0941 19.2874 2.18894 16.4406 1.1572 10.7741C0.722788 8.25267 1.18436 6.08368 2.59621 4.29426C3.7094 2.85731 5.39277 1.7457 7.5377 1.01367C8.51513 0.661209 9.51972 0.498535 10.5786 0.498535ZM10.5786 0.498535V1.85415" stroke="white" stroke-width="0.25" stroke-miterlimit="10" stroke-linecap="round" stroke-linejoin="round"/>
</svg>
