<svg width="31" height="31" viewBox="0 0 31 31" fill="none" xmlns="http://www.w3.org/2000/svg">
<path d="M13.8394 15.0546C13.5394 14.8546 13.4394 14.7546 13.2394 14.6546C9.03939 10.3546 4.83939 6.15464 0.539388 1.85464C0.439388 1.75464 0.339388 1.65464 0.239388 1.55464C-0.0606123 1.15464 0.0393877 0.65464 0.339388 0.35464C0.639388 0.0546398 1.13939 -0.0453602 1.53939 0.25464C1.63939 0.35464 1.83939 0.45464 1.93939 0.65464C6.13939 4.85464 10.4394 9.05464 14.6394 13.3546C14.7394 13.4546 14.8394 13.6546 14.9394 13.8546C15.0394 13.8546 15.0394 13.8546 15.1394 13.7546C15.2394 13.6546 15.3394 13.4546 15.4394 13.3546C19.6394 9.15464 23.8394 4.95464 28.0394 0.65464C28.1394 0.55464 28.2394 0.45464 28.3394 0.35464C28.8394 -0.0453602 29.3394 -0.14536 29.7394 0.25464C30.1394 0.65464 30.1394 1.25464 29.6394 1.65464C27.6394 3.65464 25.6394 5.65464 23.6394 7.65464C21.3394 9.95464 19.0394 12.2546 16.6394 14.6546C16.5394 14.7546 16.4394 14.8546 16.2394 15.0546C16.4394 15.1546 16.5394 15.2546 16.6394 15.3546C20.9394 19.5546 25.1394 23.8546 29.3394 28.1546C29.4394 28.2546 29.6394 28.4546 29.7394 28.5546C30.0394 28.9546 29.9394 29.3546 29.6394 29.7546C29.3394 30.0546 28.8394 30.1546 28.4394 29.8546C28.3394 29.7546 28.2394 29.6546 28.0394 29.5546C23.8394 25.3546 19.5394 21.0546 15.3394 16.8546C15.2394 16.7546 15.1394 16.5546 14.9394 16.3546C14.7394 16.5546 14.6394 16.6546 14.5394 16.7546C10.3394 20.9546 6.03939 25.2546 1.83939 29.4546C1.73939 29.5546 1.53939 29.7546 1.43939 29.8546C1.03939 30.1546 0.539388 30.0546 0.239388 29.7546C-0.0606123 29.4546 -0.0606123 28.9546 0.139388 28.5546C0.239388 28.4546 0.339388 28.3546 0.439388 28.1546C4.63939 23.9546 8.93939 19.6546 13.1394 15.4546C13.4394 15.3546 13.5394 15.2546 13.8394 15.0546Z" fill="white"/>
</svg>
