<svg width="35" height="33" viewBox="0 0 35 33" fill="none" xmlns="http://www.w3.org/2000/svg">
<path d="M33.7039 14.8856C34.5291 27.0903 25.9167 31.2385 17.1106 31.912C9.86351 32.4662 3.00497 30.1761 1.46408 18.0713C0.361355 9.40858 6.52571 4.75033 13.4633 2.49345C21.9832 -0.278162 32.7333 3.92255 33.7039 14.8856Z" stroke="white" stroke-width="1.5" stroke-miterlimit="10"/>
<path d="M12.2587 23.9043C12.1787 23.9043 12.1254 23.8843 12.0987 23.8443C12.072 23.791 12.0787 23.731 12.1187 23.6643L16.2387 16.9643C16.2654 16.9243 16.2654 16.8843 16.2387 16.8443L12.1187 10.1443C12.092 10.091 12.0787 10.051 12.0787 10.0243C12.0787 9.9443 12.1387 9.9043 12.2587 9.9043H13.9187C14.012 9.9043 14.092 9.95096 14.1587 10.0443L17.3787 15.3443C17.392 15.3576 17.412 15.3643 17.4387 15.3643C17.4654 15.3643 17.4854 15.3576 17.4987 15.3443L20.7187 10.0443C20.7854 9.95096 20.8654 9.9043 20.9587 9.9043H22.5987C22.6787 9.9043 22.732 9.93096 22.7587 9.9843C22.7854 10.0243 22.7787 10.0776 22.7387 10.1443L18.6387 16.8643C18.6254 16.9043 18.6254 16.9443 18.6387 16.9843L22.7387 23.6643C22.7654 23.7176 22.7787 23.7576 22.7787 23.7843C22.7787 23.8643 22.7187 23.9043 22.5987 23.9043H20.9587C20.8654 23.9043 20.7854 23.8576 20.7187 23.7643L17.4987 18.4843C17.4854 18.4576 17.4654 18.4443 17.4387 18.4443C17.412 18.4443 17.392 18.4576 17.3787 18.4843L14.1587 23.7643C14.092 23.8576 14.012 23.9043 13.9187 23.9043H12.2587Z" fill="white"/>
</svg>
