<svg width="23" height="40" viewBox="0 0 23 40" fill="none" xmlns="http://www.w3.org/2000/svg">
<path d="M5.77058 31.0204C5.77058 28.3744 5.74243 25.7284 5.77058 23.0823C5.77058 22.4912 5.62984 22.266 4.98241 22.266C3.65939 22.3223 2.36453 22.2942 1.04152 22.266C0.197043 22.266 0 22.069 0 21.2526C0 18.86 0 16.4673 0 14.0746C0 13.2301 0.140746 13.0894 0.985222 13.0894C2.25194 13.0894 3.51865 13.0894 4.78536 13.0894C5.77058 13.0894 5.71429 13.0894 5.77058 12.076C5.82688 10.6967 5.77058 9.28923 6.10837 7.96622C7.0936 4.05348 9.40183 1.29486 13.4272 0.225194C13.9901 0.0844476 14.5813 0.0281492 15.1724 0.0281492C17.1992 0 19.254 0.0281492 21.2808 0C21.9564 0 22.2097 0.281492 22.2097 0.928923C22.1816 3.3779 22.1816 5.79873 22.2097 8.24771C22.2097 8.92329 21.9001 9.14849 21.2808 9.14849C19.4792 9.14849 17.6777 9.14849 15.8761 9.14849C14.8628 9.14849 14.525 9.42998 14.4124 10.4433C14.3279 11.1752 14.3842 11.9071 14.3561 12.6108C14.3561 13.0894 14.6657 13.0894 15.0317 13.0894C17.0584 13.0894 19.1133 13.0894 21.14 13.0894C22.069 13.0894 22.2097 13.2301 22.2097 14.1309C22.2097 16.4954 22.2097 18.86 22.2097 21.2245C22.2097 22.069 22.0127 22.2379 21.1682 22.266C19.1977 22.266 17.2273 22.266 15.2569 22.266C14.3561 22.266 14.3561 22.266 14.3561 23.1949C14.3561 28.3181 14.3561 33.4694 14.3561 38.5925C14.3561 39.9437 14.2998 40 12.9768 40C10.9782 40 8.97959 40 7.00915 40C5.91133 40 5.77058 39.8874 5.77058 38.8177C5.77058 36.228 5.77058 33.6383 5.77058 31.0204ZM13.1175 29.9507C13.1175 27.3329 13.1175 24.6868 13.1175 22.069C13.1175 21.0837 13.2301 20.9711 14.1872 20.9711C16.1858 20.9711 18.1844 20.943 20.1548 20.9711C20.7741 20.9711 20.9711 20.8023 20.9711 20.183C20.943 18.5503 20.943 16.8895 20.9711 15.2569C20.9993 14.5813 20.8022 14.3561 20.0985 14.3842C18.0718 14.4405 16.0732 14.3842 14.0464 14.4124C13.5116 14.4124 13.0894 14.2998 13.0894 13.6805C13.0894 12.4982 13.0612 11.3441 13.1175 10.1619C13.202 8.78255 14.2153 7.90992 15.5665 7.88177C17.1429 7.88177 18.7192 7.88177 20.2674 7.88177C20.746 7.88177 20.943 7.71288 20.943 7.23434C20.9148 5.48909 20.9148 3.71569 20.943 1.97044C20.943 1.43561 20.7178 1.29486 20.2111 1.32301C19.1977 1.35116 18.1844 1.32301 17.1992 1.32301C16.1295 1.35116 15.0035 1.21042 13.962 1.43561C10.4152 2.19564 8.41661 4.58832 7.37509 7.93807C6.84025 9.71147 6.981 11.5693 6.981 13.3709C6.981 14.2435 6.8121 14.3842 5.93948 14.3842C4.58832 14.3842 3.20901 14.4124 1.85784 14.3842C1.35116 14.3842 1.21041 14.5531 1.21041 15.0317C1.23856 16.7769 1.23856 18.5503 1.21041 20.2956C1.21041 20.7741 1.37931 20.943 1.88599 20.943C3.15271 20.9148 4.41942 20.943 5.68614 20.943C6.981 20.943 7.00915 20.9711 7.00915 22.2379C7.00915 27.4455 7.00915 32.6531 7.00915 37.8607C7.00915 38.5081 7.17804 38.7051 7.85362 38.7051C9.31738 38.6488 10.8093 38.6488 12.273 38.7051C12.9768 38.7333 13.1175 38.4799 13.1175 37.8044C13.0894 35.2146 13.1175 32.5968 13.1175 29.9507Z" fill="white"/>
</svg>
