<svg width="34" height="34" viewBox="0 0 34 34" fill="none" xmlns="http://www.w3.org/2000/svg">
<circle cx="17.3246" cy="16.5044" r="16" stroke="white"/>
<path d="M17.3358 9.62679C17.0158 9.62679 16.7491 9.52012 16.5358 9.30679C16.3224 9.09346 16.2158 8.82679 16.2158 8.50679C16.2158 8.17346 16.3224 7.90679 16.5358 7.70679C16.7491 7.49346 17.0158 7.38679 17.3358 7.38679C17.6558 7.38679 17.9224 7.49346 18.1358 7.70679C18.3491 7.90679 18.4558 8.17346 18.4558 8.50679C18.4558 8.82679 18.3491 9.09346 18.1358 9.30679C17.9224 9.52012 17.6558 9.62679 17.3358 9.62679ZM16.7758 21.5668C16.6424 21.5668 16.5758 21.5001 16.5758 21.3668V11.6468C16.5758 11.5135 16.6424 11.4468 16.7758 11.4468H17.7958C17.9291 11.4468 17.9958 11.5135 17.9958 11.6468V21.3668C17.9958 21.5001 17.9291 21.5668 17.7958 21.5668H16.7758Z" fill="white"/>
</svg>
