<svg width="35" height="33" viewBox="0 0 35 33" fill="none" xmlns="http://www.w3.org/2000/svg">
<path d="M33.7039 14.8856C34.5291 27.0903 25.9167 31.2385 17.1106 31.912C9.86351 32.4662 3.00497 30.1761 1.46408 18.0713C0.361355 9.40858 6.52571 4.75033 13.4633 2.49345C21.9832 -0.278162 32.7333 3.92255 33.7039 14.8856Z" stroke="white" stroke-width="1.5" stroke-miterlimit="10"/>
<path d="M17.445 12.1245C17.0717 12.1245 16.765 12.0045 16.525 11.7645C16.285 11.5245 16.165 11.2178 16.165 10.8445C16.165 10.4711 16.285 10.1645 16.525 9.92445C16.765 9.68445 17.0717 9.56445 17.445 9.56445C17.8184 9.56445 18.125 9.68445 18.365 9.92445C18.605 10.1645 18.725 10.4711 18.725 10.8445C18.725 11.2178 18.605 11.5245 18.365 11.7645C18.125 12.0045 17.8184 12.1245 17.445 12.1245ZM16.645 23.8845C16.5117 23.8845 16.445 23.8178 16.445 23.6845V13.9245C16.445 13.7911 16.5117 13.7245 16.645 13.7245H18.165C18.2984 13.7245 18.365 13.7911 18.365 13.9245V23.6845C18.365 23.8178 18.2984 23.8845 18.165 23.8845H16.645Z" fill="white"/>
</svg>
