<svg width="41" height="40" viewBox="0 0 41 40" fill="none" xmlns="http://www.w3.org/2000/svg">
<path d="M40.4945 20.0379C40.4945 22.7379 40.4945 25.438 40.4945 28.1099C40.4664 33.7913 36.6694 38.5445 31.1006 39.7258C30.3131 39.8945 29.4974 39.9789 28.6818 39.9789C23.2254 40.007 17.7972 40.007 12.3408 39.9789C6.46261 39.9789 1.56877 35.7882 0.640628 29.9943C0.528126 29.4037 0.5 28.7568 0.5 28.1381C0.5 22.7098 0.5 17.2816 0.5 11.8534C0.528126 5.97512 4.6907 1.08127 10.4846 0.153128C11.0752 0.0687513 11.6658 0.0125002 12.2565 0.0125002C17.7409 0.0125002 23.2254 -0.0156253 28.738 0.0125002C34.56 0.0125002 39.482 4.25946 40.382 10.0252C40.4945 10.6721 40.4945 11.3471 40.4945 12.0221C40.4945 14.694 40.4945 17.366 40.4945 20.0379ZM20.5254 1.81254C17.8534 1.81254 15.2096 1.78441 12.5377 1.81254C11.7783 1.81254 11.0189 1.86879 10.2877 2.03754C5.53447 3.07819 2.32816 7.04389 2.30003 11.9096C2.30003 17.3097 2.30003 22.7098 2.30003 28.1099C2.30003 28.6162 2.32816 29.1506 2.41254 29.6568C3.2563 34.7194 7.3345 38.1789 12.4815 38.1789C17.8253 38.1789 23.1692 38.1789 28.513 38.1789C29.2443 38.1789 30.0037 38.1226 30.7068 37.9539C35.4319 36.9413 38.6663 32.9756 38.6663 28.1381C38.6945 22.7098 38.6663 17.2816 38.6663 11.8534C38.6663 11.1502 38.582 10.4471 38.4413 9.77207C37.4288 5.04697 33.4631 1.84066 28.6255 1.81254C25.9255 1.81254 23.2254 1.81254 20.5254 1.81254Z" fill="white"/>
<path d="M20.4973 30.0226C15.0128 30.0226 10.5127 25.5225 10.4846 20.0099C10.4846 14.4973 15.0128 9.96908 20.5254 9.9972C26.038 10.0253 30.51 14.5254 30.51 20.0099C30.4818 25.5225 25.9818 30.0226 20.4973 30.0226ZM28.6818 20.0099C28.6818 15.4817 25.0536 11.8254 20.5254 11.8254C15.9972 11.8254 12.3409 15.4536 12.3409 19.9818C12.3409 24.51 15.9691 28.1663 20.4973 28.1663C25.0255 28.1945 28.6818 24.5663 28.6818 20.0099Z" fill="white"/>
<path d="M31.4099 7.29688C32.4224 7.29688 33.2099 8.05627 33.2381 9.06879C33.2381 10.0813 32.4505 10.9251 31.438 10.9251C30.4255 10.9251 29.6099 10.1094 29.6099 9.09691C29.6099 8.08439 30.3974 7.29688 31.4099 7.29688Z" fill="white"/>
</svg>
