<svg width="187" height="172" viewBox="0 0 187 172" fill="none" xmlns="http://www.w3.org/2000/svg">
<path d="M174.247 106.396C155.224 167.013 105.724 170.846 61.8394 157.498C25.7241 146.513 -3.14695 122.497 12.224 61.0132C23.2241 17.0132 61.8394 6.09594 99.6679 8.25761C146.124 10.9122 190.224 51.5132 174.247 106.396Z" stroke="white" stroke-width="2" stroke-miterlimit="10"/>
<path d="M69.8631 64.206C69.8631 64.3527 69.7898 64.426 69.6431 64.426H61.8331C61.7744 64.426 61.7451 64.4553 61.7451 64.514V69.244C61.7451 69.3027 61.7744 69.332 61.8331 69.332H67.2011C67.3478 69.332 67.4211 69.4053 67.4211 69.552V70.938C67.4211 71.0847 67.3478 71.158 67.2011 71.158H61.8331C61.7744 71.158 61.7451 71.1873 61.7451 71.246V76.086C61.7451 76.1447 61.7744 76.174 61.8331 76.174H69.6431C69.7898 76.174 69.8631 76.2473 69.8631 76.394V77.78C69.8631 77.9267 69.7898 78 69.6431 78H59.8531C59.7064 78 59.6331 77.9267 59.6331 77.78V62.82C59.6331 62.6733 59.7064 62.6 59.8531 62.6H69.6431C69.7898 62.6 69.8631 62.6733 69.8631 62.82V64.206ZM77.0055 78.176C75.8909 78.176 74.9375 77.8973 74.1455 77.34C73.3535 76.768 72.8109 75.998 72.5175 75.03C72.2975 74.3553 72.1875 73.468 72.1875 72.368C72.1875 71.356 72.2975 70.4687 72.5175 69.706C72.8109 68.7673 73.3535 68.0193 74.1455 67.462C74.9522 66.9047 75.9055 66.626 77.0055 66.626C78.1055 66.626 79.0662 66.9047 79.8875 67.462C80.7089 68.0193 81.2442 68.7233 81.4935 69.574C81.5815 69.8087 81.6402 70.0507 81.6695 70.3C81.6695 70.4173 81.6035 70.4907 81.4715 70.52L79.8215 70.762H79.7775C79.6749 70.762 79.6015 70.696 79.5575 70.564L79.4915 70.212C79.3742 69.7133 79.0882 69.2953 78.6335 68.958C78.1789 68.6207 77.6289 68.452 76.9835 68.452C76.3529 68.452 75.8175 68.6207 75.3775 68.958C74.9375 69.2953 74.6515 69.7427 74.5195 70.3C74.3875 70.828 74.3215 71.5247 74.3215 72.39C74.3215 73.2407 74.3875 73.93 74.5195 74.458C74.6662 75.0447 74.9522 75.5067 75.3775 75.844C75.8175 76.1813 76.3529 76.35 76.9835 76.35C77.6289 76.35 78.1789 76.1813 78.6335 75.844C79.1029 75.5067 79.3962 75.0667 79.5135 74.524C79.5282 74.5093 79.5282 74.4947 79.5135 74.48C79.5135 74.4507 79.5209 74.4287 79.5355 74.414V74.326C79.5795 74.2087 79.6602 74.1647 79.7775 74.194L81.4275 74.458C81.5449 74.4873 81.6035 74.546 81.6035 74.634V74.722C81.6035 74.854 81.5669 75.0153 81.4935 75.206C81.2442 76.1007 80.7089 76.8193 79.8875 77.362C79.0662 77.9047 78.1055 78.176 77.0055 78.176ZM88.5877 78.176C87.5023 78.176 86.5563 77.9047 85.7497 77.362C84.943 76.8047 84.3783 76.0347 84.0557 75.052C83.7917 74.26 83.6597 73.3653 83.6597 72.368C83.6597 71.3267 83.7843 70.4467 84.0337 69.728C84.3563 68.76 84.921 68.0047 85.7277 67.462C86.5343 66.9047 87.495 66.626 88.6097 66.626C89.6657 66.626 90.5823 66.9047 91.3597 67.462C92.1517 68.0047 92.7163 68.7527 93.0537 69.706C93.3177 70.454 93.4497 71.334 93.4497 72.346C93.4497 73.3727 93.3177 74.2747 93.0537 75.052C92.731 76.0347 92.1737 76.8047 91.3817 77.362C90.5897 77.9047 89.6583 78.176 88.5877 78.176ZM88.5877 76.35C89.1743 76.35 89.6877 76.1887 90.1277 75.866C90.5677 75.5287 90.883 75.0593 91.0737 74.458C91.235 73.9007 91.3157 73.2113 91.3157 72.39C91.3157 71.5687 91.2423 70.8867 91.0957 70.344C90.905 69.7427 90.5897 69.2807 90.1497 68.958C89.7097 68.6207 89.1743 68.452 88.5437 68.452C87.9423 68.452 87.4217 68.6207 86.9817 68.958C86.5417 69.2807 86.2263 69.7427 86.0357 70.344C85.8743 70.8573 85.7937 71.5393 85.7937 72.39C85.7937 73.2407 85.8743 73.93 86.0357 74.458C86.2117 75.0593 86.5197 75.5287 86.9597 75.866C87.4143 76.1887 87.957 76.35 88.5877 76.35ZM102.881 67.022C102.881 66.8753 102.954 66.802 103.101 66.802H104.751C104.897 66.802 104.971 66.8753 104.971 67.022V77.78C104.971 77.9267 104.897 78 104.751 78H103.101C102.954 78 102.881 77.9267 102.881 77.78V76.966C102.881 76.9367 102.866 76.922 102.837 76.922C102.822 76.9073 102.8 76.9147 102.771 76.944C102.184 77.7507 101.282 78.154 100.065 78.154C99.3461 78.154 98.6788 78.0147 98.0628 77.736C97.4615 77.4573 96.9775 77.0467 96.6108 76.504C96.2441 75.9613 96.0608 75.3013 96.0608 74.524V67.022C96.0608 66.8753 96.1341 66.802 96.2808 66.802H97.9308C98.0775 66.802 98.1508 66.8753 98.1508 67.022V73.864C98.1508 74.6267 98.3488 75.228 98.7448 75.668C99.1555 76.108 99.7275 76.328 100.461 76.328C101.194 76.328 101.781 76.108 102.221 75.668C102.661 75.2133 102.881 74.612 102.881 73.864V67.022ZM113.575 68.32C113.575 68.4667 113.501 68.54 113.355 68.54H110.979C110.92 68.54 110.891 68.5693 110.891 68.628V74.458C110.891 75.074 111.03 75.5213 111.309 75.8C111.587 76.064 112.02 76.196 112.607 76.196H113.245C113.391 76.196 113.465 76.2693 113.465 76.416V77.78C113.465 77.9267 113.391 78 113.245 78C112.775 78.0293 112.438 78.044 112.233 78.044C111.118 78.044 110.275 77.846 109.703 77.45C109.145 77.0393 108.867 76.2913 108.867 75.206V68.628C108.867 68.5693 108.837 68.54 108.779 68.54H107.437C107.29 68.54 107.217 68.4667 107.217 68.32V67.022C107.217 66.8753 107.29 66.802 107.437 66.802H108.779C108.837 66.802 108.867 66.7727 108.867 66.714V64.118C108.867 63.9713 108.94 63.898 109.087 63.898H110.671C110.817 63.898 110.891 63.9713 110.891 64.118V66.714C110.891 66.7727 110.92 66.802 110.979 66.802H113.355C113.501 66.802 113.575 66.8753 113.575 67.022V68.32ZM124.98 71.004C125.039 71.6053 125.061 72.28 125.046 73.028C125.046 73.1747 124.973 73.248 124.826 73.248H117.808C117.749 73.248 117.72 73.2773 117.72 73.336C117.72 73.8347 117.764 74.216 117.852 74.48C118.013 75.0667 118.336 75.5287 118.82 75.866C119.319 76.1887 119.942 76.35 120.69 76.35C121.775 76.35 122.611 75.9027 123.198 75.008C123.271 74.8613 123.367 74.8393 123.484 74.942L124.738 75.778C124.841 75.866 124.863 75.9613 124.804 76.064C124.393 76.724 123.807 77.2447 123.044 77.626C122.296 78.0073 121.445 78.198 120.492 78.198C119.421 78.198 118.519 77.9633 117.786 77.494C117.053 77.0247 116.503 76.3573 116.136 75.492C115.784 74.6267 115.608 73.578 115.608 72.346C115.608 71.2753 115.689 70.4613 115.85 69.904C116.114 68.892 116.642 68.0927 117.434 67.506C118.226 66.9193 119.187 66.626 120.316 66.626C121.797 66.626 122.905 67 123.638 67.748C124.371 68.4813 124.819 69.5667 124.98 71.004ZM120.316 68.452C119.685 68.452 119.165 68.6133 118.754 68.936C118.343 69.244 118.065 69.662 117.918 70.19C117.815 70.5127 117.749 70.9233 117.72 71.422C117.72 71.4807 117.749 71.51 117.808 71.51H122.846C122.905 71.51 122.934 71.4807 122.934 71.422C122.905 70.938 122.861 70.5787 122.802 70.344C122.655 69.772 122.362 69.3173 121.922 68.98C121.497 68.628 120.961 68.452 120.316 68.452ZM65.3583 95.022C65.3583 94.8753 65.4317 94.802 65.5783 94.802H67.2283C67.375 94.802 67.4483 94.8753 67.4483 95.022V105.78C67.4483 105.927 67.375 106 67.2283 106H65.5783C65.4317 106 65.3583 105.927 65.3583 105.78V104.966C65.3583 104.937 65.3437 104.922 65.3143 104.922C65.2997 104.907 65.2777 104.915 65.2483 104.944C64.6617 105.751 63.7597 106.154 62.5423 106.154C61.8237 106.154 61.1563 106.015 60.5403 105.736C59.939 105.457 59.455 105.047 59.0883 104.504C58.7217 103.961 58.5383 103.301 58.5383 102.524V95.022C58.5383 94.8753 58.6117 94.802 58.7583 94.802H60.4083C60.555 94.802 60.6283 94.8753 60.6283 95.022V101.864C60.6283 102.627 60.8263 103.228 61.2223 103.668C61.633 104.108 62.205 104.328 62.9383 104.328C63.6717 104.328 64.2583 104.108 64.6983 103.668C65.1383 103.213 65.3583 102.612 65.3583 101.864V95.022ZM75.5242 94.648C76.7269 94.648 77.6802 95 78.3842 95.704C79.0882 96.3933 79.4402 97.332 79.4402 98.52V105.78C79.4402 105.927 79.3669 106 79.2202 106H77.5482C77.4016 106 77.3282 105.927 77.3282 105.78V98.938C77.3282 98.2047 77.1156 97.6107 76.6902 97.156C76.2649 96.7013 75.7002 96.474 74.9962 96.474C74.3069 96.474 73.7422 96.7013 73.3022 97.156C72.8622 97.6107 72.6422 98.1973 72.6422 98.916V105.78C72.6422 105.927 72.5689 106 72.4222 106H70.7502C70.6036 106 70.5302 105.927 70.5302 105.78V95.022C70.5302 94.8753 70.6036 94.802 70.7502 94.802H72.4222C72.5689 94.802 72.6422 94.8753 72.6422 95.022V95.814C72.6422 95.8433 72.6496 95.8653 72.6642 95.88C72.6936 95.8947 72.7156 95.8873 72.7302 95.858C73.3609 95.0513 74.2922 94.648 75.5242 94.648ZM91.7644 94.692C92.2337 94.692 92.659 94.7873 93.0404 94.978C93.143 95.022 93.1797 95.11 93.1504 95.242L92.7984 96.892C92.7837 97.024 92.6957 97.068 92.5344 97.024C92.285 96.9213 91.9917 96.87 91.6544 96.87L91.3464 96.892C90.657 96.9213 90.085 97.1633 89.6304 97.618C89.1904 98.058 88.9704 98.6373 88.9704 99.356V105.78C88.9704 105.927 88.897 106 88.7504 106H87.0784C86.9317 106 86.8584 105.927 86.8584 105.78V95.022C86.8584 94.8753 86.9317 94.802 87.0784 94.802H88.7504C88.897 94.802 88.9704 94.8753 88.9704 95.022V96.188C88.9704 96.232 88.9777 96.2613 88.9924 96.276C89.0217 96.276 89.0437 96.2613 89.0584 96.232C89.7184 95.2053 90.6204 94.692 91.7644 94.692ZM103.915 99.004C103.973 99.6053 103.995 100.28 103.981 101.028C103.981 101.175 103.907 101.248 103.761 101.248H96.7425C96.6839 101.248 96.6545 101.277 96.6545 101.336C96.6545 101.835 96.6985 102.216 96.7865 102.48C96.9479 103.067 97.2705 103.529 97.7545 103.866C98.2532 104.189 98.8765 104.35 99.6245 104.35C100.71 104.35 101.546 103.903 102.133 103.008C102.206 102.861 102.301 102.839 102.419 102.942L103.673 103.778C103.775 103.866 103.797 103.961 103.739 104.064C103.328 104.724 102.741 105.245 101.979 105.626C101.231 106.007 100.38 106.198 99.4265 106.198C98.3559 106.198 97.4539 105.963 96.7205 105.494C95.9872 105.025 95.4372 104.357 95.0705 103.492C94.7185 102.627 94.5425 101.578 94.5425 100.346C94.5425 99.2753 94.6232 98.4613 94.7845 97.904C95.0485 96.892 95.5765 96.0927 96.3685 95.506C97.1605 94.9193 98.1212 94.626 99.2505 94.626C100.732 94.626 101.839 95 102.573 95.748C103.306 96.4813 103.753 97.5667 103.915 99.004ZM99.2505 96.452C98.6199 96.452 98.0992 96.6133 97.6885 96.936C97.2779 97.244 96.9992 97.662 96.8525 98.19C96.7499 98.5127 96.6839 98.9233 96.6545 99.422C96.6545 99.4807 96.6839 99.51 96.7425 99.51H101.781C101.839 99.51 101.869 99.4807 101.869 99.422C101.839 98.938 101.795 98.5787 101.737 98.344C101.59 97.772 101.297 97.3173 100.857 96.98C100.431 96.628 99.8959 96.452 99.2505 96.452ZM96.3685 93.394C96.2805 93.394 96.2219 93.372 96.1925 93.328C96.1632 93.2693 96.1779 93.2033 96.2365 93.13L97.9745 90.732C98.0332 90.644 98.1285 90.6 98.2605 90.6H100.131C100.263 90.6 100.358 90.644 100.417 90.732L102.155 93.13C102.184 93.1593 102.199 93.2033 102.199 93.262C102.199 93.2913 102.184 93.3207 102.155 93.35C102.125 93.3793 102.081 93.394 102.023 93.394H100.725C100.607 93.394 100.519 93.35 100.461 93.262L99.2945 91.59C99.2799 91.5607 99.2579 91.546 99.2285 91.546C99.1992 91.546 99.1772 91.5607 99.1625 91.59L97.9525 93.262C97.8939 93.35 97.8059 93.394 97.6885 93.394H96.3685ZM109.228 106C109.096 106 109.008 105.941 108.964 105.824L105.378 95.044L105.356 94.956C105.356 94.8533 105.422 94.802 105.554 94.802H107.402C107.534 94.802 107.622 94.8607 107.666 94.978L110.086 102.942C110.101 102.971 110.123 102.986 110.152 102.986C110.182 102.986 110.204 102.971 110.218 102.942L112.616 94.978C112.66 94.8607 112.748 94.802 112.88 94.802L114.728 94.824C114.89 94.824 114.948 94.9047 114.904 95.066L111.34 105.824C111.296 105.941 111.208 106 111.076 106H109.228ZM125.657 99.004C125.715 99.6053 125.737 100.28 125.723 101.028C125.723 101.175 125.649 101.248 125.503 101.248H118.485C118.426 101.248 118.397 101.277 118.397 101.336C118.397 101.835 118.441 102.216 118.529 102.48C118.69 103.067 119.013 103.529 119.497 103.866C119.995 104.189 120.619 104.35 121.367 104.35C122.452 104.35 123.288 103.903 123.875 103.008C123.948 102.861 124.043 102.839 124.161 102.942L125.415 103.778C125.517 103.866 125.539 103.961 125.481 104.064C125.07 104.724 124.483 105.245 123.721 105.626C122.973 106.007 122.122 106.198 121.169 106.198C120.098 106.198 119.196 105.963 118.463 105.494C117.729 105.025 117.179 104.357 116.813 103.492C116.461 102.627 116.285 101.578 116.285 100.346C116.285 99.2753 116.365 98.4613 116.527 97.904C116.791 96.892 117.319 96.0927 118.111 95.506C118.903 94.9193 119.863 94.626 120.993 94.626C122.474 94.626 123.581 95 124.315 95.748C125.048 96.4813 125.495 97.5667 125.657 99.004ZM120.993 96.452C120.362 96.452 119.841 96.6133 119.431 96.936C119.02 97.244 118.741 97.662 118.595 98.19C118.492 98.5127 118.426 98.9233 118.397 99.422C118.397 99.4807 118.426 99.51 118.485 99.51H123.523C123.581 99.51 123.611 99.4807 123.611 99.422C123.581 98.938 123.537 98.5787 123.479 98.344C123.332 97.772 123.039 97.3173 122.599 96.98C122.173 96.628 121.638 96.452 120.993 96.452Z" fill="white"/>
</svg>
