<svg width="39" height="42" viewBox="0 0 39 42" fill="none" xmlns="http://www.w3.org/2000/svg">
<path d="M27.0698 21.341C27.0941 21.2318 27.1063 21.1347 27.1063 21.0254C27.1063 20.9162 27.0941 20.8191 27.082 20.7098C27.0577 20.6006 27.0334 20.5035 26.997 20.4064C26.9606 20.2971 26.8999 20.2 26.8392 20.1029C26.8028 20.0544 26.7907 19.9937 26.7543 19.9451C26.7178 19.9087 26.6693 19.8845 26.6329 19.848C26.5965 19.8116 26.5843 19.7631 26.5358 19.7267L8.32906 3.9475C7.62507 3.32847 6.5448 3.41344 5.92577 4.11743C5.30674 4.82142 5.39171 5.90169 6.0957 6.52072L22.7609 20.9647L6.16853 34.2314C5.44026 34.814 5.31888 35.8821 5.9015 36.6225C6.24136 37.0473 6.72687 37.2658 7.22452 37.2658C7.60079 37.2658 7.97706 37.1444 8.28051 36.8895L26.4872 22.3242C26.4994 22.312 26.4994 22.2999 26.5115 22.2877C26.5843 22.2271 26.645 22.1785 26.7057 22.1057C26.7421 22.0571 26.7664 21.9964 26.7907 21.9479C26.8514 21.8508 26.9121 21.7537 26.9606 21.6566C27.0213 21.5473 27.0577 21.4502 27.0698 21.341Z" fill="white"/>
<path d="M32.7286 37.85C31.794 37.85 31.0293 37.0853 31.0293 36.1507V5.19929C31.0293 4.26468 31.794 3.5 32.7286 3.5C33.6632 3.5 34.4279 4.26468 34.4279 5.19929V36.1507C34.4279 37.0975 33.6632 37.85 32.7286 37.85Z" fill="white"/>
</svg>
