<svg width="32" height="40" viewBox="0 0 32 40" fill="none" xmlns="http://www.w3.org/2000/svg">
<path d="M30.1048 17.8264C28.0649 16.5141 26.038 15.2018 23.9981 13.9025C17.0468 9.43293 10.1086 4.97633 3.1703 0.519721C2.80649 0.285846 2.37772 0.168909 1.97494 0C1.96195 0.025986 1.94895 0.0649651 1.93596 0.0909511C0.805567 0.103944 0 0.974476 0 2.19582C0 13.7856 0 25.3754 0 36.9651C0 37.7837 0.298839 38.4333 1.02645 38.8231C1.75406 39.2129 2.45568 39.109 3.14431 38.6672C12.1355 32.8853 21.1137 27.1034 30.1048 21.3215C31.547 20.399 31.534 18.7619 30.1048 17.8264ZM3.05336 34.6394C3.05336 24.5698 3.05336 14.5782 3.05336 4.52157C10.8752 9.54987 18.645 14.5392 26.4798 19.5805C18.658 24.6088 10.8881 29.6111 3.05336 34.6394Z" fill="white"/>
</svg>
