<svg width="90" height="89" viewBox="0 0 90 89" fill="none" xmlns="http://www.w3.org/2000/svg">
<path d="M61.5114 25.4604C50.5331 25.4604 39.5785 25.4604 28.6003 25.4604C27.0489 25.4604 26.362 26.1473 26.362 27.7106C26.362 38.6888 26.362 49.6434 26.362 60.6216C26.362 62.1494 27.0489 62.8363 28.5648 62.8363C39.5549 62.8363 50.5449 62.8363 61.5469 62.8363C63.0509 62.8363 63.7496 62.1494 63.7496 60.6216C63.7496 55.1384 63.7496 49.6434 63.7496 44.1602C63.7496 38.677 63.7496 33.1819 63.7496 27.7106C63.7378 26.1473 63.0628 25.4604 61.5114 25.4604Z" fill="white"/>
<path d="M63.1812 4.39184C29.3819 -7.29698 14.2232 6.0972 6.00427 24.0153C-3.97919 45.806 -4.59501 71.5285 28.5055 85.053C58.5388 96.6589 83.906 76.4314 88.0155 52.6748C91.3551 33.3237 87.3641 12.7647 63.1812 4.39184ZM67.4327 60.5621C67.4327 64.2097 65.0879 66.5546 61.4521 66.5546C50.4739 66.5546 39.4956 66.5546 28.5174 66.5546C24.9646 66.5546 22.5842 64.1742 22.5842 60.6213C22.5842 49.6312 22.5842 38.6411 22.5842 27.6274C22.5842 24.1101 24.9646 21.7178 28.4819 21.7178C34.0006 21.7297 39.5075 21.7297 45.0144 21.7297C50.4976 21.7297 55.9926 21.7297 61.4758 21.7297C65.076 21.7297 67.4209 24.0864 67.4209 27.6866C67.4327 38.653 67.4327 49.5957 67.4327 60.5621Z" fill="white"/>
</svg>
