<svg width="89" height="89" viewBox="0 0 89 89" fill="none" xmlns="http://www.w3.org/2000/svg">
<path d="M34.3084 62.161C43.6111 56.185 52.8425 50.2445 62.1452 44.2685C52.8425 38.2806 43.6111 32.352 34.3084 26.376C34.3084 38.3281 34.3084 50.197 34.3084 62.161Z" fill="white"/>
<path d="M88.3783 38.6378C83.8279 6.65458 53.6981 -5.65395 30.887 2.38937C12.3054 8.9357 -3.74563 22.5036 0.769082 47.7741C7.0778 83.0958 26.2297 89.8085 45.9518 88.2164C69.9155 86.3036 92.7385 74.2446 88.3783 38.6378ZM66.4581 46.3365C55.7773 53.2036 45.1083 60.0708 34.4275 66.9498C33.6077 67.4725 32.776 67.6032 31.9087 67.1398C31.0414 66.6765 30.685 65.9042 30.685 64.93C30.685 51.1601 30.685 37.3903 30.685 23.6204C30.685 22.1709 31.6473 21.1373 32.9899 21.1254C33.0018 21.0898 33.0255 21.0541 33.0374 21.0185C33.5126 21.2205 34.0235 21.363 34.4631 21.6363C42.7084 26.9351 50.9537 32.2221 59.2108 37.5328C61.6345 39.0773 64.0463 40.6337 66.47 42.1901C68.1452 43.3069 68.169 45.2435 66.4581 46.3365Z" fill="white"/>
</svg>
