<svg width="92" height="92" viewBox="0 0 92 92" fill="none" xmlns="http://www.w3.org/2000/svg">
<circle cx="46" cy="46" r="46" fill="white"/>
<path d="M32.07 80.8199C4.11999 69.3999 4.63999 47.6799 13.07 29.2799C20.01 14.1499 32.81 2.83992 61.35 12.7099C81.77 19.7799 85.14 37.1399 82.31 53.4799C78.85 73.5499 57.43 90.6199 32.07 80.8199Z" stroke="#FF0000" stroke-width="4" stroke-miterlimit="10"/>
<path d="M62.3876 45.7319V45.6997V45.7319ZM62.3876 45.7319V45.764M62.3876 45.7319V45.764M62.3876 45.764V45.7961M62.3876 45.764V45.7961M62.3876 45.7961V45.8283M62.3876 45.7961V45.8283M62.3876 45.8283V45.8604M62.3876 45.8283V45.8604M62.3876 45.8604V45.8925M62.3876 45.8604V45.8925M62.3876 45.8925V45.9246M62.3876 45.8925V45.9246M62.3876 45.9246V45.9568M62.3876 45.9246V45.9568M62.3876 45.9568V45.9889M62.3876 45.9568V45.9889M62.3876 45.9889V46.021M62.3876 45.9889V46.021M62.3876 46.021V46.0532M62.3876 46.021V46.0532M62.3876 46.0532V46.0853M62.3876 46.0532V46.0853M62.3876 46.0853V46.1174M62.3876 46.0853V46.1174M62.3876 46.1174V46.1496M62.3876 46.1174V46.1496M62.3876 46.1496V46.1817M62.3876 46.1496V46.1817M62.3876 46.1817V46.2138M62.3876 46.1817V46.2138M62.3876 46.2138V46.246M62.3876 46.2138V46.246M62.3876 46.246V46.2781M62.3876 46.246V46.2781M62.3876 46.2781V46.3102M62.3876 46.2781V46.3102M62.3876 46.3102V46.3424M62.3876 46.3102V46.3424M62.3876 46.3424V46.3745M62.3876 46.3424V46.3745M62.3876 46.3745V46.4066M62.3876 46.3745V46.4066M62.3876 46.4066V46.4388M62.3876 46.4066V46.4388M62.3876 46.4388V46.4709M62.3876 46.4388V46.4709M62.3876 46.4709V46.503M62.3876 46.4709V46.503M62.3876 46.503V46.5352M62.3876 46.503V46.5352M62.3876 46.5352V46.5673M62.3876 46.5352V46.5673M62.3876 46.5673V46.5994M62.3876 46.5673V46.5994M62.3876 46.5994V46.6316M62.3876 46.5994V46.6316M62.3876 46.6316V46.6637M62.3876 46.6316V46.6637M62.3876 46.6637V46.6958M62.3876 46.6637V46.6958M62.3876 46.6958V46.728M62.3876 46.6958V46.728M62.3876 46.728V46.7601M62.3876 46.728V46.7601M62.3876 46.7601V46.7922M62.3876 46.7601V46.7922M62.3876 46.7922V46.8244M62.3876 46.7922V46.8244M62.3876 46.8244V46.8565M62.3876 46.8244V46.8565M62.3876 46.8565V46.8887M62.3876 46.8565V46.8887M62.3876 46.8887V46.9208M62.3876 46.8887V46.9208M62.3876 46.9208V46.9529M62.3876 46.9208V46.9529M62.3876 46.9529V46.9851M62.3876 46.9529V46.9851M62.3876 46.9851V47.0172M62.3876 46.9851V47.0172M62.3876 47.0172V47.0494M62.3876 47.0172V47.0494M62.3876 47.0494V47.0815M62.3876 47.0494V47.0815M62.3876 47.0815V47.1136M62.3876 47.0815V47.1136M62.3876 47.1136V47.1458M62.3876 47.1136V47.1458M62.3876 47.1458V47.1779M62.3876 47.1458V47.1779M62.3876 47.1779V47.21M62.3876 47.1779V47.21M62.3876 47.21V47.2422M62.3876 47.21V47.2422M62.3876 47.2422V47.2743M62.3876 47.2422V47.2743M62.3876 47.2743V47.3065M62.3876 47.2743V47.3065M62.3876 47.3065V47.3386M62.3876 47.3065V47.3386M62.3876 47.3386V47.3707M62.3876 47.3386V47.3707M62.3876 47.3707V47.4029M62.3876 47.3707V47.4029M62.3876 47.4029V47.435M62.3876 47.4029V47.435M62.3876 47.435V47.4672M62.3876 47.435V47.4672M62.3876 47.4672V47.4993M62.3876 47.4672V47.4993M62.3876 47.4993V47.5315M62.3876 47.4993V47.5315M62.3876 47.5315V47.5636M62.3876 47.5315V47.5636M62.3876 47.5636V47.5957M62.3876 47.5636V47.5957M62.3876 47.5957V47.6279M62.3876 47.5957V47.6279M62.3876 47.6279V47.66M62.3876 47.6279V47.66M62.3876 47.66V47.6922M62.3876 47.66V47.6922M62.3876 47.6922V47.7243M62.3876 47.6922V47.7243M62.3876 47.7243V47.7565M62.3876 47.7243V47.7565M62.3876 47.7565V47.7886M62.3876 47.7565V47.7886M62.3876 47.7886V47.8207M62.3876 47.7886V47.8207M62.3876 47.8207V47.8529M62.3876 47.8207V47.8529M62.3876 47.8529V47.885M62.3876 47.8529V47.885M62.3876 47.885V47.9172M62.3876 47.885V47.9172M62.3876 47.9172V47.9493M62.3876 47.9172V47.9493M62.3876 47.9493V47.9815M62.3876 47.9493V47.9815M62.3876 47.9815V48.0136M62.3876 47.9815V48.0136M62.3876 48.0136V48.0458M62.3876 48.0136V48.0458M62.3876 48.0458V48.0779M62.3876 48.0458V48.0779M62.3876 48.0779V48.11M62.3876 48.0779V48.11M62.3876 48.11V48.1422M62.3876 48.11V48.1422M62.3876 48.1422V48.1743M62.3876 48.1422V48.1743M62.3876 48.1743V48.2065M62.3876 48.1743V48.2065M62.3876 48.2065V48.2386M62.3876 48.2065V48.2386M62.3876 48.2386V48.2708M62.3876 48.2386V48.2708M62.3876 48.2708V48.3029M62.3876 48.2708V48.3029M62.3876 48.3029V48.3351M62.3876 48.3029V48.3351M62.3876 48.3351V48.3672M62.3876 48.3351V48.3672M62.3876 48.3672V48.3994M62.3876 48.3672V48.3994M62.3876 48.3994V48.4315M62.3876 48.3994V48.4315M62.3876 48.4315V48.4637M62.3876 48.4315V48.4637M62.3876 48.4637V48.4958M62.3876 48.4637V48.4958M62.3876 48.4958V48.528M62.3876 48.4958V48.528M62.3876 48.528V48.5601M62.3876 48.528V48.5601M62.3876 48.5601V48.5922M62.3876 48.5601V48.5922M62.3876 48.5922V48.6244M62.3876 48.5922V48.6244M62.3876 48.6244V48.6565M62.3876 48.6244V48.6565M62.3876 48.6565V48.6887M62.3876 48.6565V48.6887M62.3876 48.6887V48.7208M62.3876 48.6887V48.7208M62.3876 48.7208V48.753M62.3876 48.7208V48.753M62.3876 48.753V48.7851M62.3876 48.753V48.7851M62.3876 48.7851V48.8173M62.3876 48.7851V48.8173M62.3876 48.8173V48.8494M62.3876 48.8173V48.8494M62.3876 48.8494V48.8816M62.3876 48.8494V48.8816M62.3876 48.8816V48.9137M62.3876 48.8816V48.9137M62.3876 48.9137V48.9459M62.3876 48.9137V48.9459M62.3876 48.9459V48.978M62.3876 48.9459V48.978M62.3876 48.978V49.0102M62.3876 48.978V49.0102M62.3876 49.0102V49.0423M62.3876 49.0102V49.0423M62.3876 49.0423V49.0745M62.3876 49.0423V49.0745M62.3876 49.0745V49.1066M62.3876 49.0745V49.1066M62.3876 49.1066V49.1388M62.3876 49.1066V49.1388M62.3876 49.1388V49.1709M62.3876 49.1388V49.1709M62.3876 49.1709V49.2031M62.3876 49.1709V49.2031M62.3876 49.2031V49.2352M62.3876 49.2031V49.2352M62.3876 49.2352V49.2674M62.3876 49.2352V49.2674M62.3876 49.2674V49.2995M62.3876 49.2674V49.2995M62.3876 49.2995V49.3317M62.3876 49.2995V49.3317M62.3876 49.3317V49.3639M62.3876 49.3317V49.3639M62.3876 49.3639V49.396M62.3876 49.3639V49.396M62.3876 49.396V49.4282M62.3876 49.396V49.4282M62.3876 49.4282V49.4603M62.3876 49.4282V49.4603M62.3876 49.4603V49.4925M62.3876 49.4603V49.4925M62.3876 49.4925V49.5246M62.3876 49.4925V49.5246M62.3876 49.5246V49.5568M62.3876 49.5246V49.5568M62.3876 49.5568V49.5889M62.3876 49.5568V49.5889M62.3876 49.5889V49.6211M62.3876 49.5889V49.6211M62.3876 49.6211V49.6532M62.3876 49.6211V49.6532M62.3876 49.6532V49.6854M62.3876 49.6532V49.6854M62.3876 49.6854V49.7175M62.3876 49.6854V49.7175M62.3876 49.7175V49.7497M62.3876 49.7175V49.7497M62.3876 49.7497V49.7818M62.3876 49.7497V49.7818M62.3876 49.7818V49.814M62.3876 49.7818V49.814M62.3876 49.814V49.8462M62.3876 49.814V49.8462M62.3876 49.8462V49.8783M62.3876 49.8462V49.8783M62.3876 49.8783V49.9105M62.3876 49.8783V49.9105M62.3876 49.9105V49.9426M62.3876 49.9105V49.9426M62.3876 49.9426V49.9748M62.3876 49.9426V49.9748M62.3876 49.9748V50.0069M62.3876 49.9748V50.0069M62.3876 50.0069V50.0391M62.3876 50.0069V50.0391M62.3876 50.0391V50.0712M62.3876 50.0391V50.0712M62.3876 50.0712V50.1034M62.3876 50.0712V50.1034M62.3876 50.1034V50.1355M62.3876 50.1034V50.1355M62.3876 50.1355V50.1677M62.3876 50.1355V50.1677M62.3876 50.1677V50.1999M62.3876 50.1677V50.1999M62.3876 50.1999V50.232M62.3876 50.1999V50.232M62.3876 50.232V50.2642M62.3876 50.232V50.2642M62.3876 50.2642V50.2963M62.3876 50.2642V50.2963M62.3876 50.2963V50.3285M62.3876 50.2963V50.3285M62.3876 50.3285V50.3606M62.3876 50.3285V50.3606M62.3876 50.3606V50.3928M62.3876 50.3606V50.3928M62.3876 50.3928V50.4249M62.3876 50.3928V50.4249M62.3876 50.4249V50.4571M62.3876 50.4249V50.4571M62.3876 50.4571V50.4893M62.3876 50.4571V50.4893M62.3876 50.4893V50.5214M62.3876 50.4893V50.5214M62.3876 50.5214V50.5536M62.3876 50.5214V50.5536M62.3876 50.5536V50.5857M62.3876 50.5536V50.5857M62.3876 50.5857V50.6179M62.3876 50.5857V50.6179M62.3876 50.6179V50.65M62.3876 50.6179V50.65M62.3876 50.65V50.6822M62.3876 50.65V50.6822M62.3876 50.6822V50.7144M62.3876 50.6822V50.7144M62.3876 50.7144V50.7465M62.3876 50.7144V50.7465M62.3876 50.7465V50.7787M62.3876 50.7465V50.7787M62.3876 50.7787V50.8108M62.3876 50.7787V50.8108M62.3876 50.8108V50.843M62.3876 50.8108V50.843M62.3876 50.843V50.8752M62.3876 50.843V50.8752M62.3876 50.8752V50.9073M62.3876 50.8752V50.9073M62.3876 50.9073V50.9395M62.3876 50.9073V50.9395M62.3876 50.9395V50.9716M62.3876 50.9395V50.9716M62.3876 50.9716V51.0038M62.3876 50.9716V51.0038M62.3876 51.0038V51.0359M62.3876 51.0038V51.0359M62.3876 51.0359V51.0681M62.3876 51.0359V51.0681M62.3876 51.0681V51.1003M62.3876 51.0681V51.1003M62.3876 51.1003V51.1324M62.3876 51.1003V51.1324M62.3876 51.1324V51.1646M62.3876 51.1324V51.1646M62.3876 51.1646V51.1967M62.3876 51.1646V51.1967M62.3876 51.1967V51.2289M62.3876 51.1967V51.2289M62.3876 51.2289V51.2611M62.3876 51.2289V51.2611M62.3876 51.2611V51.2932M62.3876 51.2611V51.2932M62.3876 51.2932V51.3254M62.3876 51.2932V51.3254M62.3876 51.3254V51.3575M62.3876 51.3254V51.3575M62.3876 51.3575V51.3897M62.3876 51.3575V51.3897M62.3876 51.3897V51.4219M62.3876 51.3897V51.4219M62.3876 51.4219V51.454M62.3876 51.4219V51.454M62.3876 51.454V51.4862M62.3876 51.454V51.4862M62.3876 51.4862V51.5183M62.3876 51.4862V51.5183M62.3876 51.5183V51.5505M62.3876 51.5183V51.5505M62.3876 51.5505V51.5827M62.3876 51.5505V51.5827M62.3876 51.5827V51.6148M62.3876 51.5827V51.6148M62.3876 51.6148V51.647M62.3876 51.6148V51.647M62.3876 51.647V51.6791M62.3876 51.647V51.6791M62.3876 51.6791V51.7113M62.3876 51.6791V51.7113M62.3876 51.7113V51.7435M62.3876 51.7113V51.7435M62.3876 51.7435V51.7756M62.3876 51.7435V51.7756M62.3876 51.7756V51.8078M62.3876 51.7756V51.8078M62.3876 51.8078V51.8399M62.3876 51.8078V51.8399M62.3876 51.8399V51.8721M62.3876 51.8399V51.8721M62.3876 51.8721V51.9043M62.3876 51.8721V51.9043M62.3876 51.9043V51.9364M62.3876 51.9043V51.9364M62.3876 51.9364V51.9686M62.3876 51.9364V51.9686M62.3876 51.9686V52.0007M62.3876 51.9686V52.0007M62.3876 52.0007V52.0329M62.3876 52.0007V52.0329M62.3876 52.0329V52.0651M62.3876 52.0329V52.0651M62.3876 52.0651V52.0972M62.3876 52.0651V52.0972M62.3876 52.0972V52.1294M62.3876 52.0972V52.1294M62.3876 52.1294V52.1615M62.3876 52.1294V52.1615M62.3876 52.1615V52.1937M62.3876 52.1615V52.1937M62.3876 52.1937V52.2259M62.3876 52.1937V52.2259M62.3876 52.2259V52.258M62.3876 52.2259V52.258M62.3876 52.258V52.2902M62.3876 52.258V52.2902M62.3876 52.2902V52.3224M62.3876 52.2902V52.3224M62.3876 52.3224V52.3545M62.3876 52.3224V52.3545M62.3876 52.3545V52.3867M62.3876 52.3545V52.3867M62.3876 52.3867V52.4188M62.3876 52.3867V52.4188M62.3876 52.4188V52.451M62.3876 52.4188V52.451M62.3876 52.451V52.4832M62.3876 52.451V52.4832M62.3876 52.4832V52.5153M62.3876 52.4832V52.5153M62.3876 52.5153V52.5475M62.3876 52.5153V52.5475M62.3876 52.5475V52.5796M62.3876 52.5475V52.5796M62.3876 52.5796V52.6118M62.3876 52.5796V52.6118M62.3876 52.6118V52.644M62.3876 52.6118V52.644M62.3876 52.644V52.6761M62.3876 52.644V52.6761M62.3876 52.6761V52.7083M62.3876 52.6761V52.7083M62.3876 52.7083V52.7405M62.3876 52.7083V52.7405M62.3876 52.7405V52.7726M62.3876 52.7405V52.7726M62.3876 52.7726V52.8048M62.3876 52.7726V52.8048M62.3876 52.8048V52.8369M62.3876 52.8048V52.8369M62.3876 52.8369V52.8691M62.3876 52.8369V52.8691M62.3876 52.8691V52.9013M62.3876 52.8691V52.9013M62.3876 52.9013V52.9334M62.3876 52.9013V52.9334M62.3876 52.9334V52.9656M62.3876 52.9334V52.9656M62.3876 52.9656V52.9978M62.3876 52.9656V52.9978M62.3876 52.9978V53.0299M62.3876 52.9978V53.0299M62.3876 53.0299V53.0621M62.3876 53.0299V53.0621M62.3876 53.0621V53.0942M62.3876 53.0621V53.0942M62.3876 53.0942V53.1264M62.3876 53.0942V53.1264M62.3876 53.1264V53.1586M62.3876 53.1264V53.1586M62.3876 53.1586V53.1907M62.3876 53.1586V53.1907M62.3876 53.1907V53.2229M62.3876 53.1907V53.2229M62.3876 53.2229V53.2551M62.3876 53.2229V53.2551M62.3876 53.2551V53.2872M62.3876 53.2551V53.2872M62.3876 53.2872V53.3194M62.3876 53.2872V53.3194M62.3876 53.3194V53.3515M62.3876 53.3194V53.3515M62.3876 53.3515V53.3837M62.3876 53.3515V53.3837M62.3876 53.3837V53.4159M62.3876 53.3837V53.4159M62.3876 53.4159V53.448M62.3876 53.4159V53.448M62.3876 53.448V53.4802M62.3876 53.448V53.4802M62.3876 53.4802V53.5124M62.3876 53.4802V53.5124M62.3876 53.5124V53.5445M62.3876 53.5124V53.5445M62.3876 53.5445V53.5767M62.3876 53.5445V53.5767M62.3876 53.5767V53.6088M62.3876 53.5767V53.6088M62.3876 53.6088V53.641M62.3876 53.6088V53.641M62.3876 53.641V53.6732M62.3876 53.641V53.6732M62.3876 53.6732V53.7053M62.3876 53.6732V53.7053M62.3876 53.7053V53.7375M62.3876 53.7053V53.7375M62.3876 53.7375V53.7697M62.3876 53.7375V53.7697M62.3876 53.7697V53.8018M62.3876 53.7697V53.8018M62.3876 53.8018V53.834M62.3876 53.8018V53.834M62.3876 53.834V53.8661M62.3876 53.834V53.8661M62.3876 53.8661V53.8983M62.3876 53.8661V53.8983M62.3876 53.8983V53.9305M62.3876 53.8983V53.9305M62.3876 53.9305V53.9626M62.3876 53.9305V53.9626M62.3876 53.9626V53.9948M62.3876 53.9626V53.9948M62.3876 53.9948V54.027M62.3876 53.9948V54.027M62.3876 54.027V54.0591M62.3876 54.027V54.0591M62.3876 54.0591V54.0913M62.3876 54.0591V54.0913M62.3876 54.0913V54.1234M62.3876 54.0913V54.1234M62.3876 54.1234V54.1556M62.3876 54.1234V54.1556M62.3876 54.1556V54.1878M62.3876 54.1556V54.1878M62.3876 54.1878V54.2199M62.3876 54.1878V54.2199M62.3876 54.2199V54.2521M62.3876 54.2199V54.2521M62.3876 54.2521V54.2843M62.3876 54.2521V54.2843M62.3876 54.2843V54.3164M62.3876 54.2843V54.3164M62.3876 54.3164V54.3486M62.3876 54.3164V54.3486M62.3876 54.3486V54.3808M62.3876 54.3486V54.3808M62.3876 54.3808V54.4129M62.3876 54.3808V54.4129M62.3876 54.4129V54.4451M62.3876 54.4129V54.4451M62.3876 54.4451V54.4772M62.3876 54.4451V54.4772M62.3876 54.4772V54.5094M62.3876 54.4772V54.5094M62.3876 54.5094V54.5416M62.3876 54.5094V54.5416M62.3876 54.5416V54.5737M62.3876 54.5416V54.5737M62.3876 54.5737V54.6059M62.3876 54.5737V54.6059M62.3876 54.6059V54.6381M62.3876 54.6059V54.6381M62.3876 54.6381V54.6702M62.3876 54.6381V54.6702M62.3876 54.6702V54.7024M62.3876 54.6702V54.7024M62.3876 54.7024V54.7345M62.3876 54.7024V54.7345M62.3876 54.7345V54.7667M62.3876 54.7345V54.7667M62.3876 54.7667V54.7989M62.3876 54.7667V54.7989M62.3876 54.7989V54.831M62.3876 54.7989V54.831M62.3876 54.831V54.8632M62.3876 54.831V54.8632M62.3876 54.8632V54.8954M62.3876 54.8632V54.8954M62.3876 54.8954V54.9275M62.3876 54.8954V54.9275M62.3876 54.9275V54.9597M62.3876 54.9275V54.9597M62.3876 54.9597V54.9918M62.3876 54.9597V54.9918M62.3876 54.9918V55.024M62.3876 54.9918V55.024M62.3876 55.024V55.0562M62.3876 55.024V55.0562M62.3876 55.0562V55.0883M62.3876 55.0562V55.0883M62.3876 55.0883V55.1205M62.3876 55.0883V55.1205M62.3876 55.1205V55.1526M62.3876 55.1205V55.1526M62.3876 55.1526V55.1848M62.3876 55.1526V55.1848M62.3876 55.1848V55.217M62.3876 55.1848V55.217M62.3876 55.217V55.2491M62.3876 55.217V55.2491M62.3876 55.2491V55.2813M62.3876 55.2491V55.2813M62.3876 55.2813V55.3135M62.3876 55.2813V55.3135M62.3876 55.3135V55.3456M62.3876 55.3135V55.3456M62.3876 55.3456V55.3778M62.3876 55.3456V55.3778M62.3876 55.3778V55.4099M62.3876 55.3778V55.4099M62.3876 55.4099V55.4421M62.3876 55.4099V55.4421M62.3876 55.4421V55.4743M62.3876 55.4421V55.4743M62.3876 55.4743V55.5064M62.3876 55.4743V55.5064M62.3876 55.5064V55.5386M62.3876 55.5064V55.5386M62.3876 55.5386V55.5708M62.3876 55.5386V55.5708M62.3876 55.5708V55.6029M62.3876 55.5708V55.6029M62.3876 55.6029V55.6351M62.3876 55.6029V55.6351M62.3876 55.6351V55.6672M62.3876 55.6351V55.6672M62.3876 55.6672V55.6994M62.3876 55.6672V55.6994M62.3876 55.6994V55.7316M62.3876 55.6994V55.7316M62.3876 55.7316V55.7637M62.3876 55.7316V55.7637M62.3876 55.7637V55.7959M62.3876 55.7637V55.7959M62.3876 55.7959V55.828M62.3876 55.7959V55.828M62.3876 55.828V55.8602M62.3876 55.828V55.8602M62.3876 55.8602V55.8924M62.3876 55.8602V55.8924M62.3876 55.8924V55.9245M62.3876 55.8924V55.9245M62.3876 55.9245V55.9567M62.3876 55.9245V55.9567M62.3876 55.9567V55.9888M62.3876 55.9567V55.9888M62.3876 55.9888V56.021M62.3876 55.9888V56.021M62.3876 56.021V56.0532M62.3876 56.021V56.0532M62.3876 56.0532V56.0853M62.3876 56.0532V56.0853M62.3876 56.0853V56.1175M62.3876 56.0853V56.1175M62.3876 56.1175V56.1496M62.3876 56.1175V56.1496M62.3876 56.1496V56.1818M62.3876 56.1496V56.1818M62.3876 56.1818V56.214M62.3876 56.1818V56.214M62.3876 56.214V56.2461M62.3876 56.214V56.2461M62.3876 56.2461V56.2783M62.3876 56.2461V56.2783M62.3876 56.2783V56.3104M62.3876 56.2783V56.3104M62.3876 56.3104V56.3426M62.3876 56.3104V56.3426M62.3876 56.3426V56.3748M62.3876 56.3426V56.3748M62.3876 56.3748V56.4069M62.3876 56.3748V56.4069M62.3876 56.4069V56.4391M62.3876 56.4069V56.4391M62.3876 56.4391V56.4712M62.3876 56.4391V56.4712M62.3876 56.4712V56.5034M62.3876 56.4712V56.5034M62.3876 56.5034V56.5356M62.3876 56.5034V56.5356M62.3876 56.5356V56.5677M62.3876 56.5356V56.5677M62.3876 56.5677V56.5999M62.3876 56.5677V56.5999M62.3876 56.5999V56.632M62.3876 56.5999V56.632M62.3876 56.632V56.6642M62.3876 56.632V56.6642M62.3876 56.6642V56.6964M62.3876 56.6642V56.6964M62.3876 56.6964V56.7285M62.3876 56.6964V56.7285M62.3876 56.7285V56.7607M62.3876 56.7285V56.7607M62.3876 56.7607V56.7928M62.3876 56.7607V56.7928M62.3876 56.7928V56.825M62.3876 56.7928V56.825M62.3876 56.825V56.8572M62.3876 56.825V56.8572M62.3876 56.8572V56.8893M62.3876 56.8572V56.8893M62.3876 56.8893V56.9215M62.3876 56.8893V56.9215M62.3876 56.9215V56.9536M62.3876 56.9215V56.9536M62.3876 56.9536V56.9858M62.3876 56.9536V56.9858M62.3876 56.9858V57.0179M62.3876 56.9858V57.0179M62.3876 57.0179V57.0501M62.3876 57.0179V57.0501M62.3876 57.0501V57.0823M62.3876 57.0501V57.0823M62.3876 57.0823V57.1144M62.3876 57.0823V57.1144M62.3876 57.1144V57.1466M62.3876 57.1144V57.1466M62.3876 57.1466V57.1787M62.3876 57.1466V57.1787M62.3876 57.1787V57.2109M62.3876 57.1787V57.2109M62.3876 57.2109V57.2431M62.3876 57.2109V57.2431M62.3876 57.2431V57.2752M62.3876 57.2431V57.2752M62.3876 57.2752V57.3074M62.3876 57.2752V57.3074M62.3876 57.3074V57.3395M62.3876 57.3074V57.3395M62.3876 57.3395V57.3717M62.3876 57.3395V57.3717M62.3876 57.3717V57.4038M62.3876 57.3717V57.4038M62.3876 57.4038V57.436M62.3876 57.4038V57.436M62.3876 57.436V57.4681M62.3876 57.436V57.4681M62.3876 57.4681V57.5003M62.3876 57.4681V57.5003M62.3876 57.5003V57.5325M62.3876 57.5003V57.5325M62.3876 57.5325V57.5646M62.3876 57.5325V57.5646M62.3876 57.5646V57.5968M62.3876 57.5646V57.5968M62.3876 57.5968V57.6289M62.3876 57.5968V57.6289M62.3876 57.6289V57.6611M62.3876 57.6289V57.6611M62.3876 57.6611V57.6932M62.3876 57.6611V57.6932M62.3876 57.6932V57.7254M62.3876 57.6932V57.7254M62.3876 57.7254V57.7576M62.3876 57.7254V57.7576M62.3876 57.7576V57.7897M62.3876 57.7576V57.7897M62.3876 57.7897V57.8219M62.3876 57.7897V57.8219M62.3876 57.8219V57.854M62.3876 57.8219V57.854M62.3876 57.854V57.8862M62.3876 57.854V57.8862M62.3876 57.8862V57.9183M62.3876 57.8862V57.9183M62.3876 57.9183V57.9505M62.3876 57.9183V57.9505M62.3876 57.9505V57.9826M62.3876 57.9505V57.9826M62.3876 57.9826V58.0148M62.3876 57.9826V58.0148M62.3876 58.0148V58.0469M62.3876 58.0148V58.0469M62.3876 58.0469V58.0791M62.3876 58.0469V58.0791M62.3876 58.0791V58.1113M62.3876 58.0791V58.1113M62.3876 58.1113V58.1434M62.3876 58.1113V58.1434M62.3876 58.1434V58.1756M62.3876 58.1434V58.1756M62.3876 58.1756V58.2077M62.3876 58.1756V58.2077M62.3876 58.2077V58.2399M62.3876 58.2077V58.2399M62.3876 58.2399V58.272M62.3876 58.2399V58.272M62.3876 58.272V58.3042M62.3876 58.272V58.3042M62.3876 58.3042V58.3363M62.3876 58.3042V58.3363M62.3876 58.3363V58.3685M62.3876 58.3363V58.3685M62.3876 58.3685V58.4006M62.3876 58.3685V58.4006M62.3876 58.4006V58.4328M62.3876 58.4006V58.4328M62.3876 58.4328V58.4649M62.3876 58.4328V58.4649M62.3876 58.4649V58.4971M62.3876 58.4649V58.4971M62.3876 58.4971V58.5292M62.3876 58.4971V58.5292M62.3876 58.5292V58.5614M62.3876 58.5292V58.5614M62.3876 58.5614V58.5935M62.3876 58.5614V58.5935M62.3876 58.5935V58.6257M62.3876 58.5935V58.6257M62.3876 58.6257V58.6578M62.3876 58.6257V58.6578M62.3876 58.6578V58.69M62.3876 58.6578V58.69M62.3876 58.69V58.7222M62.3876 58.69V58.7222M62.3876 58.7222V58.7543M62.3876 58.7222V58.7543M62.3876 58.7543V58.7865M62.3876 58.7543V58.7865M62.3876 58.7865V58.8186M62.3876 58.7865V58.8186M62.3876 58.8186V58.8508M62.3876 58.8186V58.8508M62.3876 58.8508V58.8829M62.3876 58.8508V58.8829M62.3876 58.8829V58.9151M62.3876 58.8829V58.9151M62.3876 58.9151V58.9472M62.3876 58.9151V58.9472M62.3876 58.9472V58.9794M62.3876 58.9472V58.9794M62.3876 58.9794V59.0115M62.3876 58.9794V59.0115M62.3876 59.0115V59.0437M62.3876 59.0115V59.0437M62.3876 59.0437V59.0758M62.3876 59.0437V59.0758M62.3876 59.0758V59.108M62.3876 59.0758V59.108M62.3876 59.108V59.1401M62.3876 59.108V59.1401M62.3876 59.1401V59.1722M62.3876 59.1401V59.1722M62.3876 59.1722V59.2044M62.3876 59.1722V59.2044M62.3876 59.2044V59.2365M62.3876 59.2044V59.2365M62.3876 59.2365V59.2687M62.3876 59.2365V59.2687M62.3876 59.2687V59.3008M62.3876 59.2687V59.3008M62.3876 59.3008V59.333M62.3876 59.3008V59.333M62.3876 59.333V59.3651M62.3876 59.333V59.3651M62.3876 59.3651V59.3973M62.3876 59.3651V59.3973M62.3876 59.3973V59.4294M62.3876 59.3973V59.4294M62.3876 59.4294V59.4616M62.3876 59.4294V59.4616M62.3876 59.4616V59.4937M62.3876 59.4616V59.4937M62.3876 59.4937V59.5259M62.3876 59.4937V59.5259M62.3876 59.5259V59.558M62.3876 59.5259V59.558M62.3876 59.558V59.5902M62.3876 59.558V59.5902M62.3876 59.5902V59.6223M62.3876 59.5902V59.6223M62.3876 59.6223V59.6545M62.3876 59.6223V59.6545M62.3876 59.6545V59.6866M62.3876 59.6545V59.6866M62.3876 59.6866V59.7188M62.3876 59.6866V59.7188M62.3876 59.7188V59.7509M62.3876 59.7188V59.7509M62.3876 59.7509V59.783M62.3876 59.7509V59.783M62.3876 59.783V59.8152M62.3876 59.783V59.8152M62.3876 59.8152V59.8473M62.3876 59.8152V59.8473M62.3876 59.8473V59.8795M62.3876 59.8473V59.8795M62.3876 59.8795V59.9116M62.3876 59.8795V59.9116M62.3876 59.9116V59.9438M62.3876 59.9116V59.9438M62.3876 59.9438V59.9759M62.3876 59.9438V59.9759M62.3876 59.9759V60.0081M62.3876 59.9759V60.0081M62.3876 60.0081V60.0402M62.3876 60.0081V60.0402M62.3876 60.0402V60.0723M62.3876 60.0402V60.0723M62.3876 60.0723V60.1045M62.3876 60.0723V60.1045M62.3876 60.1045V60.1366M62.3876 60.1045V60.1366M62.3876 60.1366V60.1688M62.3876 60.1366V60.1688M62.3876 60.1688V60.2009M62.3876 60.1688V60.2009M62.3876 60.2009V60.2331M62.3876 60.2009V60.2331M62.3876 60.2331V60.2652M62.3876 60.2331V60.2652M62.3876 60.2652V60.2973M62.3876 60.2652V60.2973M62.3876 60.2973V60.3295M62.3876 60.2973V60.3295M62.3876 60.3295V60.3616M62.3876 60.3295V60.3616M62.3876 60.3616V60.3938M62.3876 60.3616V60.3938M62.3876 60.3938V60.4259M62.3876 60.3938V60.4259M62.3876 60.4259V60.458M62.3876 60.4259V60.458M62.3876 60.458V60.4902M62.3876 60.458V60.4902M62.3876 60.4902V60.5223M62.3876 60.4902V60.5223M62.3876 60.5223V60.5545M62.3876 60.5223V60.5545M62.3876 60.5545V60.5866M62.3876 60.5545V60.5866M62.3876 60.5866V60.6188M62.3876 60.5866V60.6188M62.3876 60.6188V60.6509M62.3876 60.6188V60.6509M62.3876 60.6509V60.683M62.3876 60.6509V60.683M62.3876 60.683V60.7152M62.3876 60.683V60.7152M62.3876 60.7152V60.7473M62.3876 60.7152V60.7473M62.3876 60.7473V60.7794M62.3876 60.7473V60.7794M62.3876 60.7794V60.8116M62.3876 60.7794V60.8116M62.3876 60.8116V60.8437M62.3876 60.8116V60.8437M62.3876 60.8437V60.8759V60.8437ZM62.1494 29V27L62.3876 62.1612C62.3876 62.245 62.3841 62.3134 62.3792 62.3682C62.3271 62.3727 62.2629 62.3758 62.1849 62.3758H62.1204H62.056H61.9915H61.927H61.8626H61.7981H61.7336H61.6692H61.6047H61.5403H61.4758H61.4113H61.3469H61.2824H61.2179H61.1535H61.089H61.0246H60.9601H60.8956H60.8312H60.7667H60.7023H60.6378H60.5734H60.5089H60.4444H60.38H60.3155H60.2511H60.1866H60.1222H60.0577H59.9932H59.9288H59.8643H59.7999H59.7354H59.671H59.6065H59.5421H59.4776H59.4132H59.3487H59.2843H59.2198H59.1553H59.0909H59.0264H58.962H58.8975H58.8331H58.7686H58.7042H58.6397H58.5753H58.5108H58.4464H58.3819H58.3175H58.253H58.1886H58.1241H58.0597H57.9952H57.9308H57.8663H57.8019H57.7375H57.673H57.6086H57.5441H57.4797H57.4152H57.3508H57.2863H57.2219H57.1574H57.093H57.0286H56.9641H56.8997H56.8352H56.7708H56.7063H56.6419H56.5774H56.513H56.4486H56.3841H56.3197H56.2552H56.1908H56.1264H56.0619H55.9975H55.933H55.8686H55.8041H55.7397H55.6753H55.6108H55.5464H55.4819H55.4175H55.3531H55.2886H55.2242H55.1598H55.0953H55.0309H54.9664H54.902H54.8376H54.7731H54.7087H54.6443H54.5798H54.5154H54.4509H54.3865H54.3221H54.2576H54.1932H54.1288H54.0643H53.9999H53.9355H53.871H53.8066H53.7422H53.6777H53.6133H53.5489H53.4844H53.42H53.3556H53.2911H53.2267H53.1623H53.0978H53.0334H52.969H52.9045H52.8401H52.7757H52.7113H52.6468H52.5824H52.518H52.4535H52.3891H52.3247H52.2602H52.1958H52.1314H52.067H52.0025H51.9381H51.8737H51.8092H51.7448H51.6804H51.616H51.5515H51.4871H51.4227H51.3583H51.2938H51.2294H51.165H51.1006H51.0361H50.9717H50.9073H50.8429H50.7784H50.714H50.6496H50.5852H50.5207H50.4563H50.3919H50.3275H50.263H50.1986H50.1342H50.0698H50.0053H49.9409H49.8765H49.8121H49.7477H49.6832H49.6188H49.5544H49.49H49.4255H49.3611H49.2967H49.2323H49.1679H49.1034H49.039H48.9746H48.9102H48.8458H48.7813H48.7169H48.6525H48.5881H48.5237H48.4592H48.3948H48.3304H48.266H48.2016H48.1372H48.0727H48.0083H47.9439H47.8795H47.8151H47.7507H47.6862H47.6218H47.5574H47.493H47.4286H47.3642H47.2997H47.2353H47.1709H47.1065H47.0421H46.9777H46.9132H46.8488H46.7844H46.72H46.6556H46.5912H46.5268H46.4623H46.3979H46.3335H46.2691H46.2047H46.1403H46.0759H46.0114H45.947H45.8826H45.8182H45.7538H45.6894H45.625H45.5606H45.4961H45.4317H45.3673H45.3029H45.2385H45.1741H45.1097H45.0453H44.9809H44.9164H44.852H44.7876H44.7232H44.6588H44.5944H44.53H44.4656H44.4012H44.3367H44.2723H44.2079H44.1435H44.0791H44.0147H43.9503H43.8859H43.8215H43.7571H43.6927H43.6283H43.5638H43.4994H43.435H43.3706H43.3062H43.2418H43.1774H43.113H43.0486H42.9842H42.9198H42.8554H42.7909H42.7265H42.6621H42.5977H42.5333H42.4689H42.4045H42.3401H42.2757H42.2113H42.1469H42.0825H42.0181H41.9537H41.8893H41.8249H41.7605H41.696H41.6316H41.5672H41.5028H41.4384H41.374H41.3096H41.2452H41.1808H41.1164H41.052H40.9876H40.9232H40.8588H40.7944H40.73H40.6656H40.6012H40.5368H40.4724H40.408H40.3436H40.2792H40.2148H40.1504H40.086H40.0216H39.9571H39.8927H39.8283H39.7639H39.6995H39.6351H39.5707H39.5063H39.4419H39.3775H39.3131H39.2487H39.1843H39.1199H39.0555H38.9911H38.9267H38.8623H38.7979H38.7335H38.6691H38.6047H38.5403H38.4759H38.4115H38.3471H38.2827H38.2183H38.1539H38.0895H38.0251H37.9607H37.8963H37.8319H37.7675H37.7031H37.6387H37.5743H37.5099H37.4455H37.3811H37.3167H37.2523H37.1879H37.1235H37.0591H36.9947H36.9303H36.8659H36.8015H36.7371H36.6727H36.6083H36.5439H36.4795H36.4151H36.3507H36.2863H36.2219H36.1575H36.0931H36.0287H35.9643H35.8999H35.8355H35.7711H35.7068H35.6424H35.578H35.5136H35.4492H35.3848H35.3204H35.256H35.1916H35.1272H35.0628H34.9984H34.934H34.8696H34.8052H34.7408H34.6764H34.612H34.5476H34.4832H34.4188H34.3544H34.29H34.2256H34.1612H34.0968H34.0324H33.968H33.9036H33.8392H33.7748H33.7104H33.646H33.5817H33.5173H33.4529H33.3885H33.3241H33.2597H33.1953H33.1309H33.0665H33.0021H32.9377H32.8733H32.8089H32.7445H32.6801H32.6157H32.5513H32.4869H32.4225H32.3581H32.2937H32.2293H32.1649H32.1005H32.0361H31.9718H31.9074H31.843H31.7786H31.7142H31.6498H31.5854H31.521H31.4566H31.3922H31.3278H31.2634H31.199H31.1346H31.0702H31.0058H30.9414H30.877H30.8126H30.7482H30.6838H30.6194H30.5551H30.4907H30.4263H30.3619H30.2975H30.2331H30.1687H30.1043H30.0399H29.9755H29.9111H29.8467H29.7823H29.7179H29.6535H29.5891H29.5247H29.4603H29.3959H29.3315H29.2672H29.2028C29.1249 62.3758 29.0606 62.3728 29.0082 62.3684C29.0034 62.3132 29 62.2448 29 62.1612V62.0969V62.0325V61.9682V61.9039V61.8396V61.7753V61.7109V61.6466V61.5823V61.518V61.4536V61.3893V61.325V61.2607V61.1964V61.1321V61.0677V61.0034V60.9391V60.8748V60.8105V60.7462V60.6818V60.6175V60.5532V60.4889V60.4246V60.3603V60.296V60.2317V60.1674V60.103V60.0387V59.9744V59.9101V59.8458V59.7815V59.7172V59.6529V59.5886V59.5243V59.46V59.3957V59.3314V59.2671V59.2028V59.1385V59.0742V59.0098V58.9455V58.8812V58.8169V58.7526V58.6883V58.624V58.5597V58.4954V58.4312V58.3669V58.3026V58.2383V58.174V58.1097V58.0454V57.9811V57.9168V57.8525V57.7882V57.7239V57.6596V57.5953V57.531V57.4667V57.4024V57.3381V57.2739V57.2096V57.1453V57.081V57.0167V56.9524V56.8881V56.8238V56.7595V56.6953V56.631V56.5667V56.5024V56.4381V56.3738V56.3095V56.2453V56.181V56.1167V56.0524V55.9881V55.9238V55.8596V55.7953V55.731V55.6667V55.6024V55.5381V55.4739V55.4096V55.3453V55.281V55.2167V55.1525V55.0882V55.0239V54.9596V54.8953V54.8311V54.7668V54.7025V54.6382V54.574V54.5097V54.4454V54.3811V54.3169V54.2526V54.1883V54.124V54.0598V53.9955V53.9312V53.8669V53.8027V53.7384V53.6741V53.6098V53.5456V53.4813V53.417V53.3528V53.2885V53.2242V53.1599V53.0957V53.0314V52.9671V52.9029V52.8386V52.7743V52.7101V52.6458V52.5815V52.5173V52.453V52.3887V52.3244V52.2602V52.1959V52.1316V52.0674V52.0031V51.9388V51.8746V51.8103V51.746V51.6818V51.6175V51.5533V51.489V51.4247V51.3605V51.2962V51.2319V51.1677V51.1034V51.0391V50.9749V50.9106V50.8463V50.7821V50.7178V50.6536V50.5893V50.525V50.4608V50.3965V50.3322V50.268V50.2037V50.1395V50.0752V50.0109V49.9467V49.8824V49.8182V49.7539V49.6896V49.6254V49.5611V49.4969V49.4326V49.3683V49.3041V49.2398V49.1756V49.1113V49.047V48.9828V48.9185V48.8543V48.79V48.7257V48.6615V48.5972V48.533V48.4687V48.4045V48.3402V48.2759V48.2117V48.1474V48.0832V48.0189V47.9546V47.8904V47.8261V47.7619V47.6976V47.6334V47.5691V47.5048V47.4406V47.3763V47.3121V47.2478V47.1836V47.1193V47.055V46.9908V46.9265V46.8623V46.798V46.7338V46.6695V46.6053V46.541V46.4767V46.4125V46.3482V46.284V46.2197V46.1555V46.0912V46.0269V45.9627V45.8984V45.8342V45.7699V45.7057V45.6414V45.5772V45.5129V45.4486V45.3844V45.3201V45.2559V45.1916V45.1274V45.0631V44.9988V44.9346V44.8703V44.8061V44.7418V44.6776V44.6133V44.549V44.4848V44.4205V44.3563V44.292V44.2278V44.1635V44.0992V44.035V43.9707V43.9065V43.8422V43.778V43.7137V43.6495V43.5852V43.5209V43.4567V43.3924V43.3282V43.2639V43.1996V43.1354V43.0711V43.0069V42.9426V42.8784V42.8141V42.7498V42.6856V42.6213V42.5571V42.4928V42.4285V42.3643V42.3V42.2358V42.1715V42.1072V42.043V41.9787V41.9145V41.8502V41.7859V41.7217V41.6574V41.5932V41.5289V41.4646V41.4004V41.3361V41.2719V41.2076V41.1433V41.0791V41.0148V40.9506V40.8863V40.822V40.7578V40.6935V40.6292V40.565V40.5007V40.4365V40.3722V40.3079V40.2437V40.1794V40.1151V40.0509V39.9866V39.9223V39.8581V39.7938V39.7295V39.6653V39.601V39.5367V39.4725V39.4082V39.3439V39.2797V39.2154V39.1511V39.0869V39.0226V38.9583V38.8941V38.8298V38.7655V38.7013V38.637V38.5727V38.5085V38.4442V38.3799V38.3157V38.2514V38.1871V38.1228V38.0586V37.9943V37.93V37.8658V37.8015V37.7372V37.6729V37.6087V37.5444V37.4801V37.4158V37.3516V37.2873V37.223V37.1587V37.0945V37.0302V36.9659V36.9016V36.8374V36.7731V36.7088V36.6445V36.5803V36.516V36.4517V36.3874V36.3231V36.2589V36.1946V36.1303V36.066V36.0017V35.9375V35.8732V35.8089V35.7446V35.6803V35.6161V35.5518V35.4875V35.4232V35.3589V35.2946V35.2304V35.1661V35.1018V35.0375V34.9732V34.9089V34.8446V34.7804V34.7161V34.6518V34.5875V34.5232V34.4589V34.3946V34.3303V34.266V34.2018V34.1375V34.0732V34.0089V33.9446V33.8803V33.816V33.7517V33.6874V33.6231V33.5588V33.4945V33.4302V33.366V33.3017V33.2374V33.1731V33.1088V33.0445V32.9802V32.9159V32.8516V32.7873V32.723V32.6587V32.5944V32.5301V32.4658V32.4015V32.3372V32.2729V32.2086V32.1443V32.08V32.0157V31.9514V31.887V31.8227V31.7584V31.6941V31.6298V31.5655V31.5012V31.4369V31.3726V31.3083V31.244V31.1797V31.1154V31.051V30.9867V30.9224V30.8581V30.7938V30.7295V30.6652V30.6009V30.5365V30.4722V30.4079V30.3436V30.2793V30.215V30.1506V30.0863V30.022V29.9577V29.8934V29.829V29.7647V29.7004V29.6361V29.5717V29.5074V29.4431V29.3788V29.3145V29.2501C29 29.151 29.0044 29.0717 29.0105 29.0096C29.0699 29.004 29.1451 29 29.2383 29H29.3026H29.3669H29.4313H29.4956H29.5599H29.6242H29.6886H29.7529H29.8172H29.8815H29.9458H30.0102H30.0745H30.1388H30.2031H30.2674H30.3317H30.3961H30.4604H30.5247H30.589H30.6533H30.7176H30.7819H30.8463H30.9106H30.9749H31.0392H31.1035H31.1678H31.2321H31.2964H31.3607H31.4251H31.4894H31.5537H31.618H31.6823H31.7466H31.8109H31.8752H31.9395H32.0038H32.0681H32.1324H32.1967H32.261H32.3253H32.3896H32.4539H32.5182H32.5825H32.6468H32.7111H32.7754H32.8397H32.904H32.9683H33.0326H33.0969H33.1612H33.2255H33.2898H33.3541H33.4184H33.4827H33.547H33.6113H33.6756H33.7399H33.8042H33.8685H33.9328H33.997H34.0613H34.1256H34.1899H34.2542H34.3185H34.3828H34.4471H34.5114H34.5757H34.6399H34.7042H34.7685H34.8328H34.8971H34.9614H35.0257H35.0899H35.1542H35.2185H35.2828H35.3471H35.4114H35.4756H35.5399H35.6042H35.6685H35.7328H35.7971H35.8613H35.9256H35.9899H36.0542H36.1185H36.1827H36.247H36.3113H36.3756H36.4399H36.5041H36.5684H36.6327H36.697H36.7612H36.8255H36.8898H36.9541H37.0184H37.0826H37.1469H37.2112H37.2755H37.3397H37.404H37.4683H37.5325H37.5968H37.6611H37.7254H37.7896H37.8539H37.9182H37.9825H38.0467H38.111H38.1753H38.2395H38.3038H38.3681H38.4323H38.4966H38.5609H38.6252H38.6894H38.7537H38.818H38.8822H38.9465H39.0108H39.075H39.1393H39.2036H39.2678H39.3321H39.3964H39.4606H39.5249H39.5892H39.6534H39.7177H39.782H39.8462H39.9105H39.9748H40.039H40.1033H40.1676H40.2318H40.2961H40.3603H40.4246H40.4889H40.5531H40.6174H40.6817H40.7459H40.8102H40.8744H40.9387H41.003H41.0672H41.1315H41.1958H41.26H41.3243H41.3885H41.4528H41.5171H41.5813H41.6456H41.7098H41.7741H41.8384H41.9026H41.9669H42.0311H42.0954H42.1597H42.2239H42.2882H42.3524H42.4167H42.481H42.5452H42.6095H42.6737H42.738H42.8023H42.8665H42.9308H42.995H43.0593H43.1235H43.1878H43.2521H43.3163H43.3806H43.4448H43.5091H43.5733H43.6376H43.7019H43.7661H43.8304H43.8946H43.9589H44.0231H44.0874H44.1517H44.2159H44.2802H44.3444H44.4087H44.4729H44.5372H44.6015H44.6657H44.73H44.7942H44.8585H44.9227H44.987H45.0513H45.1155H45.1798H45.244H45.3083H45.3725H45.4368H45.5011H45.5653H45.6296H45.6938H45.7581H45.8223H45.8866H45.9508H46.0151H46.0794H46.1436H46.2079H46.2721H46.3364H46.4006H46.4649H46.5292H46.5934H46.6577H46.7219H46.7862H46.8504H46.9147H46.9789H47.0432H47.1075H47.1717H47.236H47.3002H47.3645H47.4287H47.493H47.5573H47.6215H47.6858H47.75H47.8143H47.8785H47.9428H48.0071H48.0713H48.1356H48.1998H48.2641H48.3284H48.3926H48.4569H48.5211H48.5854H48.6496H48.7139H48.7782H48.8424H48.9067H48.9709H49.0352H49.0995H49.1637H49.228H49.2922H49.3565H49.4208H49.485H49.5493H49.6135H49.6778H49.7421H49.8063H49.8706H49.9348H49.9991H50.0634H50.1276H50.1919H50.2561H50.3204H50.3847H50.4489H50.5132H50.5775H50.6417H50.706H50.7702H50.8345H50.8988H50.963H51.0273H51.0916H51.1558H51.2201H51.2844H51.3486H51.4129H51.4771H51.5414H51.6057H51.6699H51.7342H51.7985H51.8627H51.927H51.9913H52.0555H52.1198H52.1841H52.2483H52.3126H52.3769H52.4411H52.5054H52.5697H52.6339H52.6982H52.7625H52.8268H52.891H52.9553H53.0196H53.0838H53.1481H53.2124H53.2766H53.3409H53.4052H53.4695H53.5337H53.598H53.6623H53.7265H53.7908H53.8551H53.9194H53.9836H54.0479H54.1122H54.1765H54.2407H54.305H54.3693H54.4336H54.4978H54.5621H54.6264H54.6907H54.7549H54.8192H54.8835H54.9478H55.0121H55.0763H55.1406H55.2049H55.2692H55.3335H55.3977H55.462H55.5263H55.5906H55.6549H55.7191H55.7834H55.8477H55.912H55.9763H56.0406H56.1048H56.1691H56.2334H56.2977H56.362H56.4263H56.4906H56.5548H56.6191H56.6834H56.7477H56.812H56.8763H56.9406H57.0049H57.0691H57.1334H57.1977H57.262H57.3263H57.3906H57.4549H57.5192H57.5835H57.6478H57.7121H57.7764H57.8406H57.9049H57.9692H58.0335H58.0978H58.1621H58.2264H58.2907H58.355H58.4193H58.4836H58.5479H58.6122H58.6765H58.7408H58.8051H58.8694H58.9337H58.998H59.0623H59.1266H59.1909H59.2552H59.3195H59.3838H59.4481H59.5124H59.5767H59.641H59.7054H59.7697H59.834H59.8983H59.9626H60.0269H60.0912H60.1555H60.2198H60.2841H60.3484H60.4128H60.4771H60.5414H60.6057H60.67H60.7343H60.7986H60.8629H60.9273H60.9916H61.0559H61.1202H61.1845H61.2488H61.3132H61.3775H61.4418H61.5061H61.5704H61.6348H61.6991H61.7634H61.8277H61.8921H61.9564H62.0207H62.085H62.1494Z" fill="#FF0000" stroke="#FF0000" stroke-width="4"/>
</svg>
