<svg width="187" height="172" viewBox="0 0 187 172" fill="none" xmlns="http://www.w3.org/2000/svg">
<path d="M176.909 107.877C151.481 213.275 -28.765 167.989 9.24294 60.2552C36.9178 -39.4819 210.065 4.0071 176.909 107.877Z" stroke="white" stroke-width="2" stroke-miterlimit="10"/>
<path d="M62.5136 76C62.3963 76 62.3156 75.9487 62.2716 75.846L59.1916 69.268C59.177 69.224 59.1476 69.202 59.1036 69.202H55.9356C55.877 69.202 55.8476 69.2313 55.8476 69.29V75.78C55.8476 75.9267 55.7743 76 55.6276 76H53.9556C53.809 76 53.7356 75.9267 53.7356 75.78V60.82C53.7356 60.6733 53.809 60.6 53.9556 60.6H59.8736C60.7536 60.6 61.5236 60.7833 62.1836 61.15C62.8583 61.5167 63.379 62.03 63.7456 62.69C64.1123 63.35 64.2956 64.1127 64.2956 64.978C64.2956 66.0047 64.0243 66.8773 63.4816 67.596C62.9536 68.3 62.213 68.7767 61.2596 69.026C61.201 69.0553 61.1863 69.092 61.2156 69.136L64.4056 75.736C64.4203 75.7653 64.4276 75.802 64.4276 75.846C64.4276 75.9487 64.369 76 64.2516 76H62.5136ZM55.9356 62.426C55.877 62.426 55.8476 62.4553 55.8476 62.514V67.442C55.8476 67.5007 55.877 67.53 55.9356 67.53H59.6096C60.387 67.53 61.0103 67.3027 61.4796 66.848C61.949 66.3787 62.1836 65.7627 62.1836 65C62.1836 64.2227 61.949 63.5993 61.4796 63.13C61.0103 62.6607 60.387 62.426 59.6096 62.426H55.9356ZM71.0558 64.626C71.9505 64.626 72.7278 64.7873 73.3878 65.11C74.0625 65.418 74.5758 65.858 74.9278 66.43C75.2945 66.9873 75.4778 67.6253 75.4778 68.344V75.78C75.4778 75.9267 75.4045 76 75.2578 76H73.5858C73.4392 76 73.3658 75.9267 73.3658 75.78V74.988C73.3658 74.9147 73.3292 74.9 73.2558 74.944C72.8745 75.34 72.4052 75.648 71.8478 75.868C71.3052 76.0733 70.6965 76.176 70.0218 76.176C68.9365 76.176 68.0345 75.9047 67.3158 75.362C66.6118 74.8047 66.2598 73.9687 66.2598 72.854C66.2598 71.71 66.6558 70.8153 67.4478 70.17C68.2545 69.51 69.3765 69.18 70.8138 69.18H73.2778C73.3365 69.18 73.3658 69.1507 73.3658 69.092V68.498C73.3658 67.8527 73.1752 67.354 72.7938 67.002C72.4272 66.6353 71.8625 66.452 71.0998 66.452C70.4838 66.452 69.9778 66.5767 69.5818 66.826C69.2005 67.0607 68.9658 67.3833 68.8778 67.794C68.8338 67.9407 68.7458 68.0067 68.6138 67.992L66.8318 67.75C66.6852 67.7207 66.6192 67.662 66.6338 67.574C66.7512 66.7087 67.2132 66.0047 68.0198 65.462C68.8265 64.9047 69.8385 64.626 71.0558 64.626ZM70.4838 74.394C71.2612 74.394 71.9358 74.1887 72.5078 73.778C73.0798 73.3673 73.3658 72.8467 73.3658 72.216V70.918C73.3658 70.8593 73.3365 70.83 73.2778 70.83H71.2098C70.3445 70.83 69.6552 70.9987 69.1418 71.336C68.6285 71.6733 68.3718 72.1427 68.3718 72.744C68.3718 73.2867 68.5625 73.6973 68.9438 73.976C69.3398 74.2547 69.8532 74.394 70.4838 74.394ZM82.8171 76.176C81.7024 76.176 80.7491 75.8973 79.9571 75.34C79.1651 74.768 78.6224 73.998 78.3291 73.03C78.1091 72.3553 77.9991 71.468 77.9991 70.368C77.9991 69.356 78.1091 68.4687 78.3291 67.706C78.6224 66.7673 79.1651 66.0193 79.9571 65.462C80.7637 64.9047 81.7171 64.626 82.8171 64.626C83.9171 64.626 84.8777 64.9047 85.6991 65.462C86.5204 66.0193 87.0557 66.7233 87.3051 67.574C87.3931 67.8087 87.4517 68.0507 87.4811 68.3C87.4811 68.4173 87.4151 68.4907 87.2831 68.52L85.6331 68.762H85.5891C85.4864 68.762 85.4131 68.696 85.3691 68.564L85.3031 68.212C85.1857 67.7133 84.8997 67.2953 84.4451 66.958C83.9904 66.6207 83.4404 66.452 82.7951 66.452C82.1644 66.452 81.6291 66.6207 81.1891 66.958C80.7491 67.2953 80.4631 67.7427 80.3311 68.3C80.1991 68.828 80.1331 69.5247 80.1331 70.39C80.1331 71.2407 80.1991 71.93 80.3311 72.458C80.4777 73.0447 80.7637 73.5067 81.1891 73.844C81.6291 74.1813 82.1644 74.35 82.7951 74.35C83.4404 74.35 83.9904 74.1813 84.4451 73.844C84.9144 73.5067 85.2077 73.0667 85.3251 72.524C85.3397 72.5093 85.3397 72.4947 85.3251 72.48C85.3251 72.4507 85.3324 72.4287 85.3471 72.414V72.326C85.3911 72.2087 85.4717 72.1647 85.5891 72.194L87.2391 72.458C87.3564 72.4873 87.4151 72.546 87.4151 72.634V72.722C87.4151 72.854 87.3784 73.0153 87.3051 73.206C87.0557 74.1007 86.5204 74.8193 85.6991 75.362C84.8777 75.9047 83.9171 76.176 82.8171 76.176ZM94.3992 76.176C93.3139 76.176 92.3679 75.9047 91.5612 75.362C90.7545 74.8047 90.1899 74.0347 89.8672 73.052C89.6032 72.26 89.4712 71.3653 89.4712 70.368C89.4712 69.3267 89.5959 68.4467 89.8452 67.728C90.1679 66.76 90.7325 66.0047 91.5392 65.462C92.3459 64.9047 93.3065 64.626 94.4212 64.626C95.4772 64.626 96.3939 64.9047 97.1712 65.462C97.9632 66.0047 98.5279 66.7527 98.8652 67.706C99.1292 68.454 99.2612 69.334 99.2612 70.346C99.2612 71.3727 99.1292 72.2747 98.8652 73.052C98.5425 74.0347 97.9852 74.8047 97.1932 75.362C96.4012 75.9047 95.4699 76.176 94.3992 76.176ZM94.3992 74.35C94.9859 74.35 95.4992 74.1887 95.9392 73.866C96.3792 73.5287 96.6945 73.0593 96.8852 72.458C97.0465 71.9007 97.1272 71.2113 97.1272 70.39C97.1272 69.5687 97.0539 68.8867 96.9072 68.344C96.7165 67.7427 96.4012 67.2807 95.9612 66.958C95.5212 66.6207 94.9859 66.452 94.3552 66.452C93.7539 66.452 93.2332 66.6207 92.7932 66.958C92.3532 67.2807 92.0379 67.7427 91.8472 68.344C91.6859 68.8573 91.6052 69.5393 91.6052 70.39C91.6052 71.2407 91.6859 71.93 91.8472 72.458C92.0232 73.0593 92.3312 73.5287 92.7712 73.866C93.2259 74.1887 93.7685 74.35 94.3992 74.35ZM107.02 64.648C108.223 64.648 109.176 65 109.88 65.704C110.584 66.3933 110.936 67.332 110.936 68.52V75.78C110.936 75.9267 110.863 76 110.716 76H109.044C108.898 76 108.824 75.9267 108.824 75.78V68.938C108.824 68.2047 108.612 67.6107 108.186 67.156C107.761 66.7013 107.196 66.474 106.492 66.474C105.803 66.474 105.238 66.7013 104.798 67.156C104.358 67.6107 104.138 68.1973 104.138 68.916V75.78C104.138 75.9267 104.065 76 103.918 76H102.246C102.1 76 102.026 75.9267 102.026 75.78V65.022C102.026 64.8753 102.1 64.802 102.246 64.802H103.918C104.065 64.802 104.138 64.8753 104.138 65.022V65.814C104.138 65.8433 104.146 65.8653 104.16 65.88C104.19 65.8947 104.212 65.8873 104.226 65.858C104.857 65.0513 105.788 64.648 107.02 64.648ZM119.472 66.32C119.472 66.4667 119.399 66.54 119.252 66.54H116.876C116.817 66.54 116.788 66.5693 116.788 66.628V72.458C116.788 73.074 116.927 73.5213 117.206 73.8C117.485 74.064 117.917 74.196 118.504 74.196H119.142C119.289 74.196 119.362 74.2693 119.362 74.416V75.78C119.362 75.9267 119.289 76 119.142 76C118.673 76.0293 118.335 76.044 118.13 76.044C117.015 76.044 116.172 75.846 115.6 75.45C115.043 75.0393 114.764 74.2913 114.764 73.206V66.628C114.764 66.5693 114.735 66.54 114.676 66.54H113.334C113.187 66.54 113.114 66.4667 113.114 66.32V65.022C113.114 64.8753 113.187 64.802 113.334 64.802H114.676C114.735 64.802 114.764 64.7727 114.764 64.714V62.118C114.764 61.9713 114.837 61.898 114.984 61.898H116.568C116.715 61.898 116.788 61.9713 116.788 62.118V64.714C116.788 64.7727 116.817 64.802 116.876 64.802H119.252C119.399 64.802 119.472 64.8753 119.472 65.022V66.32ZM130.877 69.004C130.936 69.6053 130.958 70.28 130.943 71.028C130.943 71.1747 130.87 71.248 130.723 71.248H123.705C123.647 71.248 123.617 71.2773 123.617 71.336C123.617 71.8347 123.661 72.216 123.749 72.48C123.911 73.0667 124.233 73.5287 124.717 73.866C125.216 74.1887 125.839 74.35 126.587 74.35C127.673 74.35 128.509 73.9027 129.095 73.008C129.169 72.8613 129.264 72.8393 129.381 72.942L130.635 73.778C130.738 73.866 130.76 73.9613 130.701 74.064C130.291 74.724 129.704 75.2447 128.941 75.626C128.193 76.0073 127.343 76.198 126.389 76.198C125.319 76.198 124.417 75.9633 123.683 75.494C122.95 75.0247 122.4 74.3573 122.033 73.492C121.681 72.6267 121.505 71.578 121.505 70.346C121.505 69.2753 121.586 68.4613 121.747 67.904C122.011 66.892 122.539 66.0927 123.331 65.506C124.123 64.9193 125.084 64.626 126.213 64.626C127.695 64.626 128.802 65 129.535 65.748C130.269 66.4813 130.716 67.5667 130.877 69.004ZM126.213 66.452C125.583 66.452 125.062 66.6133 124.651 66.936C124.241 67.244 123.962 67.662 123.815 68.19C123.713 68.5127 123.647 68.9233 123.617 69.422C123.617 69.4807 123.647 69.51 123.705 69.51H128.743C128.802 69.51 128.831 69.4807 128.831 69.422C128.802 68.938 128.758 68.5787 128.699 68.344C128.553 67.772 128.259 67.3173 127.819 66.98C127.394 66.628 126.859 66.452 126.213 66.452ZM65.3583 93.022C65.3583 92.8753 65.4317 92.802 65.5783 92.802H67.2283C67.375 92.802 67.4483 92.8753 67.4483 93.022V103.78C67.4483 103.927 67.375 104 67.2283 104H65.5783C65.4317 104 65.3583 103.927 65.3583 103.78V102.966C65.3583 102.937 65.3437 102.922 65.3143 102.922C65.2997 102.907 65.2777 102.915 65.2483 102.944C64.6617 103.751 63.7597 104.154 62.5423 104.154C61.8237 104.154 61.1563 104.015 60.5403 103.736C59.939 103.457 59.455 103.047 59.0883 102.504C58.7217 101.961 58.5383 101.301 58.5383 100.524V93.022C58.5383 92.8753 58.6117 92.802 58.7583 92.802H60.4083C60.555 92.802 60.6283 92.8753 60.6283 93.022V99.864C60.6283 100.627 60.8263 101.228 61.2223 101.668C61.633 102.108 62.205 102.328 62.9383 102.328C63.6717 102.328 64.2583 102.108 64.6983 101.668C65.1383 101.213 65.3583 100.612 65.3583 99.864V93.022ZM75.5242 92.648C76.7269 92.648 77.6802 93 78.3842 93.704C79.0882 94.3933 79.4402 95.332 79.4402 96.52V103.78C79.4402 103.927 79.3669 104 79.2202 104H77.5482C77.4016 104 77.3282 103.927 77.3282 103.78V96.938C77.3282 96.2047 77.1156 95.6107 76.6902 95.156C76.2649 94.7013 75.7002 94.474 74.9962 94.474C74.3069 94.474 73.7422 94.7013 73.3022 95.156C72.8622 95.6107 72.6422 96.1973 72.6422 96.916V103.78C72.6422 103.927 72.5689 104 72.4222 104H70.7502C70.6036 104 70.5302 103.927 70.5302 103.78V93.022C70.5302 92.8753 70.6036 92.802 70.7502 92.802H72.4222C72.5689 92.802 72.6422 92.8753 72.6422 93.022V93.814C72.6422 93.8433 72.6496 93.8653 72.6642 93.88C72.6936 93.8947 72.7156 93.8873 72.7302 93.858C73.3609 93.0513 74.2922 92.648 75.5242 92.648ZM91.7644 92.692C92.2337 92.692 92.659 92.7873 93.0404 92.978C93.143 93.022 93.1797 93.11 93.1504 93.242L92.7984 94.892C92.7837 95.024 92.6957 95.068 92.5344 95.024C92.285 94.9213 91.9917 94.87 91.6544 94.87L91.3464 94.892C90.657 94.9213 90.085 95.1633 89.6304 95.618C89.1904 96.058 88.9704 96.6373 88.9704 97.356V103.78C88.9704 103.927 88.897 104 88.7504 104H87.0784C86.9317 104 86.8584 103.927 86.8584 103.78V93.022C86.8584 92.8753 86.9317 92.802 87.0784 92.802H88.7504C88.897 92.802 88.9704 92.8753 88.9704 93.022V94.188C88.9704 94.232 88.9777 94.2613 88.9924 94.276C89.0217 94.276 89.0437 94.2613 89.0584 94.232C89.7184 93.2053 90.6204 92.692 91.7644 92.692ZM103.915 97.004C103.973 97.6053 103.995 98.28 103.981 99.028C103.981 99.1747 103.907 99.248 103.761 99.248H96.7425C96.6839 99.248 96.6545 99.2773 96.6545 99.336C96.6545 99.8347 96.6985 100.216 96.7865 100.48C96.9479 101.067 97.2705 101.529 97.7545 101.866C98.2532 102.189 98.8765 102.35 99.6245 102.35C100.71 102.35 101.546 101.903 102.133 101.008C102.206 100.861 102.301 100.839 102.419 100.942L103.673 101.778C103.775 101.866 103.797 101.961 103.739 102.064C103.328 102.724 102.741 103.245 101.979 103.626C101.231 104.007 100.38 104.198 99.4265 104.198C98.3559 104.198 97.4539 103.963 96.7205 103.494C95.9872 103.025 95.4372 102.357 95.0705 101.492C94.7185 100.627 94.5425 99.578 94.5425 98.346C94.5425 97.2753 94.6232 96.4613 94.7845 95.904C95.0485 94.892 95.5765 94.0927 96.3685 93.506C97.1605 92.9193 98.1212 92.626 99.2505 92.626C100.732 92.626 101.839 93 102.573 93.748C103.306 94.4813 103.753 95.5667 103.915 97.004ZM99.2505 94.452C98.6199 94.452 98.0992 94.6133 97.6885 94.936C97.2779 95.244 96.9992 95.662 96.8525 96.19C96.7499 96.5127 96.6839 96.9233 96.6545 97.422C96.6545 97.4807 96.6839 97.51 96.7425 97.51H101.781C101.839 97.51 101.869 97.4807 101.869 97.422C101.839 96.938 101.795 96.5787 101.737 96.344C101.59 95.772 101.297 95.3173 100.857 94.98C100.431 94.628 99.8959 94.452 99.2505 94.452ZM96.3685 91.394C96.2805 91.394 96.2219 91.372 96.1925 91.328C96.1632 91.2693 96.1779 91.2033 96.2365 91.13L97.9745 88.732C98.0332 88.644 98.1285 88.6 98.2605 88.6H100.131C100.263 88.6 100.358 88.644 100.417 88.732L102.155 91.13C102.184 91.1593 102.199 91.2033 102.199 91.262C102.199 91.2913 102.184 91.3207 102.155 91.35C102.125 91.3793 102.081 91.394 102.023 91.394H100.725C100.607 91.394 100.519 91.35 100.461 91.262L99.2945 89.59C99.2799 89.5607 99.2579 89.546 99.2285 89.546C99.1992 89.546 99.1772 89.5607 99.1625 89.59L97.9525 91.262C97.8939 91.35 97.8059 91.394 97.6885 91.394H96.3685ZM109.228 104C109.096 104 109.008 103.941 108.964 103.824L105.378 93.044L105.356 92.956C105.356 92.8533 105.422 92.802 105.554 92.802H107.402C107.534 92.802 107.622 92.8607 107.666 92.978L110.086 100.942C110.101 100.971 110.123 100.986 110.152 100.986C110.182 100.986 110.204 100.971 110.218 100.942L112.616 92.978C112.66 92.8607 112.748 92.802 112.88 92.802L114.728 92.824C114.89 92.824 114.948 92.9047 114.904 93.066L111.34 103.824C111.296 103.941 111.208 104 111.076 104H109.228ZM125.657 97.004C125.715 97.6053 125.737 98.28 125.723 99.028C125.723 99.1747 125.649 99.248 125.503 99.248H118.485C118.426 99.248 118.397 99.2773 118.397 99.336C118.397 99.8347 118.441 100.216 118.529 100.48C118.69 101.067 119.013 101.529 119.497 101.866C119.995 102.189 120.619 102.35 121.367 102.35C122.452 102.35 123.288 101.903 123.875 101.008C123.948 100.861 124.043 100.839 124.161 100.942L125.415 101.778C125.517 101.866 125.539 101.961 125.481 102.064C125.07 102.724 124.483 103.245 123.721 103.626C122.973 104.007 122.122 104.198 121.169 104.198C120.098 104.198 119.196 103.963 118.463 103.494C117.729 103.025 117.179 102.357 116.813 101.492C116.461 100.627 116.285 99.578 116.285 98.346C116.285 97.2753 116.365 96.4613 116.527 95.904C116.791 94.892 117.319 94.0927 118.111 93.506C118.903 92.9193 119.863 92.626 120.993 92.626C122.474 92.626 123.581 93 124.315 93.748C125.048 94.4813 125.495 95.5667 125.657 97.004ZM120.993 94.452C120.362 94.452 119.841 94.6133 119.431 94.936C119.02 95.244 118.741 95.662 118.595 96.19C118.492 96.5127 118.426 96.9233 118.397 97.422C118.397 97.4807 118.426 97.51 118.485 97.51H123.523C123.581 97.51 123.611 97.4807 123.611 97.422C123.581 96.938 123.537 96.5787 123.479 96.344C123.332 95.772 123.039 95.3173 122.599 94.98C122.173 94.628 121.638 94.452 120.993 94.452Z" fill="white"/>
</svg>
