<svg width="34" height="34" viewBox="0 0 34 34" fill="none" xmlns="http://www.w3.org/2000/svg">
<path d="M16.7609 0.256871C20.8629 0.256871 24.965 0.256871 29.0671 0.256871C31.7587 0.256871 33.51 2.01994 33.51 4.71155C33.51 12.9039 33.51 21.0846 33.51 29.2769C33.51 32.0038 31.7587 33.7551 29.0436 33.7551C20.8394 33.7551 12.6353 33.7551 4.43117 33.7551C1.77482 33.7551 0 31.9803 0 29.3239C0 21.1081 0 12.8922 0 4.66453C0 2.03169 1.77482 0.245117 4.40766 0.245117C8.53324 0.256871 12.6471 0.256871 16.7609 0.256871ZM30.7479 17.0177C30.7479 12.9157 30.7479 8.81362 30.7479 4.7233C30.7479 3.55968 30.2425 3.04251 29.0788 3.04251C20.8747 3.04251 12.6823 3.04251 4.47818 3.04251C3.31456 3.04251 2.80915 3.55968 2.80915 4.7233C2.80915 12.9274 2.80915 21.1198 2.80915 29.3239C2.80915 30.4641 3.32631 30.9812 4.45467 30.9812C12.6706 30.9812 20.8864 30.9812 29.1023 30.9812C30.2307 30.9812 30.7479 30.4641 30.7479 29.3239C30.7479 25.2219 30.7479 21.1198 30.7479 17.0177Z" fill="white"/>
</svg>
