<svg width="24" height="19" viewBox="0 0 24 19" fill="none" xmlns="http://www.w3.org/2000/svg">
<path d="M7.39999 14.6637C7.69999 14.3637 7.89999 14.0637 8.09999 13.8637C12.5 9.46366 17 4.96366 21.4 0.56366C21.8 0.16366 22.3 -0.13634 22.9 0.0636599C23.9 0.26366 24.3 1.56366 23.7 2.36366C23.6 2.46366 23.5 2.56366 23.4 2.66366C18.5 7.56366 13.5 12.5637 8.59999 17.4637C7.79999 18.2637 7 18.2637 6.2 17.4637C4.3 15.5637 2.4 13.6637 0.5 11.7637C0.2 11.4637 0 11.1637 0 10.6637C0 10.0637 0.299988 9.56366 0.799988 9.36366C1.29999 9.06366 1.89999 9.16366 2.29999 9.56366C2.39999 9.66366 2.49999 9.76366 2.59999 9.86366C4.09999 11.3637 5.59999 12.8637 7.09999 14.3637C7.19999 14.3637 7.29999 14.5637 7.39999 14.6637Z" fill="white"/>
</svg>
