<svg width="49" height="40" viewBox="0 0 49 40" fill="none" xmlns="http://www.w3.org/2000/svg">
<path d="M0 35.6303C6.78066 36.1649 11.7044 33.7171 14.6586 31.3256C12.4922 31.213 10.579 30.5659 8.89083 29.2998C7.2027 28.0337 6.021 26.3737 5.31761 24.3479C6.04914 24.3761 6.78066 24.4605 7.48405 24.4605C8.18744 24.4323 8.89083 24.3198 9.62235 24.151C7.37151 23.5039 5.43016 22.3503 3.96711 20.4934C2.50406 18.6364 1.77254 16.5544 1.7444 14.1066C3.15118 14.81 4.58609 15.2883 6.24609 15.3164C3.68575 13.4313 2.22271 11.0398 1.85695 8.00117C1.60373 5.91913 2.11017 3.58388 3.17932 1.89575C8.60947 8.31066 15.5027 11.8276 23.9433 12.4185C23.8871 11.9964 23.8308 11.6588 23.8027 11.3212C23.2681 7.10083 25.4627 2.99303 29.2891 1.07981C33.0311 -0.833405 37.6172 -0.158151 40.684 2.73981C41.0497 3.10558 41.3592 3.18998 41.8657 3.07744C43.8352 2.59913 45.6921 1.86761 47.5772 0.770323C46.7612 3.13371 45.3826 4.87812 43.4131 6.17235C43.4413 6.22862 43.4413 6.2849 43.4694 6.31303C44.3697 6.11608 45.2701 5.94727 46.1423 5.72218C47.0426 5.46896 47.9148 5.15947 48.9558 4.79371C48.3087 5.60964 47.8023 6.34117 47.1833 6.98829C46.2829 7.91676 45.2982 8.78896 44.3135 9.63303C44.004 9.88625 43.9196 10.1113 43.9196 10.5052C43.9477 19.3117 40.7965 26.7957 34.3535 32.8167C30.1613 36.7276 25.125 38.9503 19.4417 39.71C12.7454 40.6103 6.44304 39.4286 0.618981 35.9679C0.450168 35.9117 0.225084 35.771 0 35.6303ZM26.0816 14.191C17.3878 14.1629 9.93184 11.1805 3.77016 5.07507C3.71389 5.18761 3.68576 5.21574 3.68576 5.27202C3.09491 8.76083 4.13592 11.6588 7.00574 13.7971C8.44066 14.8662 10.0162 15.7666 11.5356 16.7513C11.6481 16.8357 11.7888 16.9201 12.0139 17.0608C9.20032 17.1734 6.55558 17.2015 3.85457 16.7795C3.91084 16.9764 3.93897 17.1452 3.99524 17.2859C4.47355 18.5239 5.20507 19.593 6.16168 20.4934C7.681 21.9283 9.56608 22.491 11.5637 22.8005C13.1674 23.0537 14.7711 23.3632 16.403 23.6445C13.6457 24.5449 11.0291 25.811 8.0749 26.2049C8.24371 26.4018 8.32812 26.5706 8.4688 26.7113C10.1007 28.5683 12.1264 29.6093 14.6023 29.6937C16.1498 29.75 17.7254 29.6937 19.2728 29.6937C19.2728 29.75 19.2728 29.8062 19.2728 29.8625C15.5308 33.0418 11.6762 36.0242 6.63999 36.8683C6.69626 36.9808 6.72439 37.0089 6.72439 37.0089C6.86507 37.0652 7.00575 37.1215 7.17456 37.1496C10.8884 38.3032 14.6867 38.6408 18.5413 38.2188C23.2118 37.7123 27.5447 36.193 31.2586 33.3232C38.9396 27.3584 42.5409 19.4242 42.2596 9.71744C42.2596 9.37981 42.3158 9.12659 42.6253 8.92964C43.0755 8.64828 43.5257 8.28252 43.9477 7.97303C42.5691 8.14184 41.2748 7.86049 39.9524 7.41032C40.9372 6.48184 41.8657 5.60964 42.8223 4.73744C42.2877 4.73744 41.8094 4.82185 41.3592 4.96252C40.8528 5.13134 40.5152 4.96252 40.1494 4.56863C38.1236 2.37405 35.5914 1.44558 32.6091 1.83947C28.1074 2.43032 24.7593 6.87574 25.4908 11.293C25.6596 12.2496 25.8847 13.2062 26.0816 14.191Z" fill="white"/>
</svg>
