<svg width="41" height="41" viewBox="0 0 41 41" fill="none" xmlns="http://www.w3.org/2000/svg">
<path d="M20.9326 40.0036C16.8405 39.9724 13.4355 39.0353 10.2805 37.161C10.0462 37.0204 9.85882 37.0048 9.59329 37.0985C7.00056 38.0356 4.40782 38.9572 1.81508 39.8787C1.44023 40.0192 1.08099 40.0505 0.768616 39.7537C0.440619 39.4257 0.487475 39.0665 0.643664 38.676C1.61204 36.177 2.56479 33.678 3.53316 31.1789C3.64249 30.9134 3.64249 30.7104 3.4863 30.4605C-3.66715 18.7932 2.7366 3.58035 16.0751 0.503426C27.0084 -2.01122 38.0353 5.15786 40.1126 16.1379C42.1431 26.8057 35.5675 36.9736 25.0091 39.4726C24.3844 39.6132 23.7596 39.7381 23.1349 39.8162C22.2602 39.9255 21.3856 39.9724 20.9326 40.0036ZM2.79907 37.7545C2.95526 37.7076 3.00212 37.692 3.06459 37.6608C5.23562 36.8955 7.39103 36.1301 9.56206 35.3336C9.98377 35.1774 10.3274 35.2086 10.7022 35.4429C14.9818 38.1137 19.5894 38.9259 24.5093 37.8795C34.3805 35.7709 40.7374 25.6186 38.3633 15.8099C35.9268 5.84509 26.1493 -0.152567 16.1688 2.20589C8.62492 3.98644 2.86155 10.7026 2.25241 18.4339C1.92441 22.651 2.89279 26.5401 5.20438 30.0856C5.43867 30.4449 5.48552 30.7885 5.32933 31.1789C4.93886 32.1317 4.57963 33.0844 4.22039 34.0528C3.75183 35.2555 3.28326 36.4738 2.79907 37.7545Z" fill="white"/>
<path d="M30.507 25.103C30.9756 28.0237 27.2583 30.7414 24.197 29.8199C22.3852 29.2732 20.7452 28.383 19.152 27.399C15.013 24.8531 12.3891 21.1045 10.8116 16.6063C10.0462 14.4197 10.8428 12.1549 12.6858 10.7805C13.3574 10.2807 14.1071 9.96827 14.9662 10.0151C15.3879 10.0307 15.8252 10.0307 16.2469 10.0151C16.653 10.0151 16.9498 10.1869 17.1216 10.5462C17.6683 11.6395 18.2149 12.7328 18.7616 13.8261C19.0583 14.4353 19.0583 15.0913 18.746 15.6692C18.3867 16.3252 17.9338 16.9343 17.4964 17.5434C17.3715 17.7152 17.3246 17.8246 17.4183 18.0276C18.418 20.4329 20.1204 22.1198 22.5257 23.135C22.7288 23.2131 22.8381 23.1662 22.9943 23.0413C23.5878 22.604 24.1813 22.151 24.8373 21.8074C25.4933 21.4482 26.2118 21.495 26.899 21.8699C27.8518 22.3697 28.8201 22.8539 29.7885 23.3068C30.3196 23.5567 30.5851 23.9003 30.5226 24.4939C30.4914 24.6813 30.507 24.8843 30.507 25.103ZM28.8514 25.2748C29.0076 24.8062 28.6952 24.5876 28.2422 24.3845C27.555 24.0878 26.8834 23.7285 26.2274 23.3693C25.8994 23.1819 25.587 23.1819 25.3215 23.3849C24.7905 23.7754 24.2438 24.1659 23.7752 24.6188C23.4004 24.978 23.0412 25.0717 22.5413 24.8999C19.152 23.6817 16.8404 21.3701 15.6222 17.9808C15.4504 17.4966 15.5597 17.1373 15.9189 16.7625C16.3719 16.2783 16.7624 15.716 17.1684 15.1694C17.3559 14.9038 17.3246 14.6227 17.1684 14.3259C16.7624 13.545 16.3719 12.7484 15.9814 11.9675C15.9346 11.8582 15.8252 11.702 15.7471 11.702C15.0443 11.6864 14.357 11.6083 13.7323 12.0768C12.4203 13.0764 11.858 14.6696 12.4672 16.2783C13.7948 19.8394 15.7627 22.9944 18.949 25.2436C20.6671 26.4618 22.4633 27.5083 24.4781 28.1487C25.1341 28.3517 25.7745 28.383 26.4305 28.1799C27.9142 27.7582 28.8514 26.6649 28.8514 25.2748Z" fill="white"/>
</svg>
